<?xml version="1.0" encoding="UTF-8" standalone="no"?>
<!-- Created with Inkscape (http://www.inkscape.org/) -->

<svg
   width="122.05mm"
   height="122.05mm"
   viewBox="0 0 122.05 122.04999"
   version="1.1"
   id="svg792"
   xml:space="preserve"
   inkscape:export-filename="qodisoft.png"
   inkscape:export-xdpi="96"
   inkscape:export-ydpi="96"
   sodipodi:docname="qodisoft.svg"
   inkscape:version="1.2 (dc2aeda, 2022-05-15)"
   xmlns:inkscape="http://www.inkscape.org/namespaces/inkscape"
   xmlns:sodipodi="http://sodipodi.sourceforge.net/DTD/sodipodi-0.dtd"
   xmlns="http://www.w3.org/2000/svg"
   xmlns:svg="http://www.w3.org/2000/svg"><sodipodi:namedview
     id="namedview794"
     pagecolor="#ffffff"
     bordercolor="#000000"
     borderopacity="0.25"
     inkscape:showpageshadow="2"
     inkscape:pageopacity="0.0"
     inkscape:pagecheckerboard="0"
     inkscape:deskcolor="#d1d1d1"
     inkscape:document-units="mm"
     showgrid="false"
     inkscape:zoom="1.5109757"
     inkscape:cx="231.30749"
     inkscape:cy="230.97658"
     inkscape:window-width="1512"
     inkscape:window-height="916"
     inkscape:window-x="0"
     inkscape:window-y="38"
     inkscape:window-maximized="0"
     inkscape:current-layer="layer1" /><defs
     id="defs789" /><g
     inkscape:label="Layer 1"
     inkscape:groupmode="layer"
     id="layer1"
     transform="matrix(1,0,0,0.9863636,-47.28756,-54.835039)"><path
       id="path2529"
       style="display:inline;fill:#51a3a3;fill-opacity:1;stroke:none;stroke-width:0.264583"
       inkscape:label="path2529"
       d="m 108.35773,57.810425 c -14.706726,0 -27.004588,3.770847 -37.83542,11.600325 -3.258028,2.355195 -8.763014,7.724301 -11.067024,10.794174 -7.708246,10.270468 -11.47752,21.519186 -11.86646,35.412306 -0.347404,12.40979 2.524786,24.11524 8.244975,33.60209 3.178771,5.27192 8.851845,11.67052 13.548527,15.28175 8.548462,6.57273 20.102152,10.97221 31.699362,12.07006 3.44128,0.32577 10.64633,0.33942 14.02291,0.0269 9.47586,-0.87742 18.32198,-3.60225 25.87543,-7.90857 -2.16203,-2.54748 -4.28953,-5.12402 -6.43372,-7.68738 -3.11815,-3.78205 -6.18149,-7.61304 -9.36532,-11.34039 -4.0719,2.41027 -8.66489,4.10873 -13.67513,4.96093 -2.96847,0.50491 -8.88111,0.85815 -10.95334,0.65474 -4.199767,-0.41226 -6.348937,-0.72255 -8.19485,-1.1839 -11.96379,-2.99014 -21.009785,-10.33151 -26.380819,-21.41058 -2.972959,-6.13249 -4.44109,-12.94605 -4.44779,-20.63957 -0.0031,-3.57067 0.571998,-8.78088 1.299145,-11.77189 2.957129,-12.163649 10.754483,-22.192217 21.213176,-27.282574 11.52914,-5.611358 26.063928,-5.729555 37.810098,-0.307474 11.09851,5.123124 19.06551,15.433113 21.93406,28.383798 0.82741,3.73555 1.13038,6.80158 1.12138,11.37708 -0.0123,6.62095 -1.24338,12.77993 -3.50573,18.24695 1.73358,1.03588 3.41787,2.1596 5.08548,3.29179 4.79657,3.39102 9.25204,7.22853 13.65911,11.1032 0.674,0.58626 1.35015,1.16996 2.02623,1.7539 3.52896,-6.61149 5.71946,-13.88418 6.66213,-22.09271 0.56532,-4.92267 0.39119,-12.88419 -0.38757,-17.72709 -2.71121,-16.858735 -11.01085,-30.088622 -24.63468,-39.267367 -2.95165,-1.988647 -10.06162,-5.484207 -13.22916,-6.504512 -7.50427,-2.417172 -14.09203,-3.435966 -22.225,-3.435966 z m 30.54955,77.921345 c -2.40403,4.13477 -5.47109,7.74672 -9.10177,10.70012 3.09623,3.60416 6.04928,7.33564 9.07077,11.00036 2.29023,2.73643 4.55888,5.49014 6.87348,8.20518 0.6342,-0.45498 1.25947,-0.91959 1.86914,-1.39991 2.90531,-2.28898 8.08931,-7.60138 10.13685,-10.388 0.51486,-0.70078 1.00535,-1.41176 1.48466,-2.12751 -0.93459,-0.80641 -1.86855,-1.61335 -2.79983,-2.42363 -4.23252,-3.72197 -8.50877,-7.41227 -13.10979,-10.67738 -1.4524,-0.98952 -2.91762,-1.97485 -4.42351,-2.88923 z m -33.72455,61.10066 c -0.0858,0.0104 -0.17144,0.0212 -0.2589,0.0315 0.0863,-6.2e-4 0.17261,-0.002 0.2589,-0.003 z m 2.64583,1.13533 v 0.061 c 0.13435,0.0136 0.26395,0.026 0.41393,0.0429 -0.0758,-0.0196 -0.15215,-0.037 -0.22789,-0.0568 -0.0552,-0.0145 -0.12197,-0.0309 -0.18604,-0.047 z m 38.11602,8.42894 c -0.0195,0.0589 -0.0495,0.1252 -0.0848,0.19482 0.0478,-0.0502 0.0883,-0.10402 0.11731,-0.16329 -0.0105,-0.0109 -0.0222,-0.0206 -0.0326,-0.0315 z M 35.545117,217.94845 c -0.133084,0.002 -0.249129,0.0143 -0.340548,0.0372 -0.02998,0.008 -0.05819,0.0212 -0.08785,0.03 0.229041,0.0304 0.464164,0.0807 0.703316,0.14418 0.468677,0.0114 0.937413,0.0231 1.406116,0.0346 -0.554774,-0.14656 -1.219869,-0.25375 -1.681035,-0.24598 z"
       sodipodi:insensitive="true" /><path
       id="path2671"
       style="display:inline;fill:#0f66a0;fill-opacity:1;stroke:none;stroke-width:3.23392;stroke-opacity:1"
       d="m 410.66797,219.71289 c -24.96632,-0.17006 -49.88127,2.93105 -72.24609,9.41211 -81.06899,23.49288 -137.69158,85.60032 -153.36328,168.21485 -3.73618,19.69551 -4.27034,66.53305 -0.99414,87.16602 14.39356,90.64848 78.95402,157.46034 171.5,177.47851 16.84564,3.64381 25.8357,4.17642 59.42187,3.52149 47.43042,-0.92491 69.30455,-5.68538 103.99024,-22.62696 4.33309,-2.11641 8.53088,-4.38544 12.65234,-6.73828 -7.75612,-9.16351 -15.40331,-18.41869 -23.10742,-27.6289 -11.75193,-14.25409 -23.29803,-28.69184 -35.29492,-42.74219 -14.57301,8.50899 -31.00741,15.33728 -45.01172,18.20703 -19.00038,3.89356 -58.62879,3.92955 -76.33203,0.0684 -56.6607,-12.35824 -98.63972,-53.87229 -114.71485,-113.44336 -6.49496,-24.06934 -6.50192,-69.49637 -0.0156,-94.11914 7.86888,-29.87143 19.92052,-50.79268 41.92968,-72.78516 21.95513,-21.93846 39.71884,-32.23467 68.52149,-39.71484 23.85558,-6.19543 61.86367,-6.18048 85.44141,0.0332 51.35206,13.53331 88.55265,48.78272 106.27539,100.70117 6.23144,18.25492 7.02871,23.40248 7.8457,50.61133 0.93515,31.14406 -2.77784,56.81448 -11.80859,79.17383 6.22558,3.75962 12.2882,7.80598 18.29297,11.88281 18.12897,12.81644 34.96837,27.32044 51.625,41.96485 2.09574,1.82291 4.19927,3.63666 6.30078,5.45312 9.83369,-18.58093 17.17513,-39.0365 21.74414,-61.17969 3.91627,-18.97981 4.39523,-26.89541 3.47461,-57.3164 -0.88807,-29.34584 -2.01681,-38.71915 -6.69922,-55.61524 -18.42,-66.46695 -64.28039,-117.75141 -128.17971,-143.33793 -26.96199,-10.7961 -59.14848,-16.42198 -91.24805,-16.64063 z m 115.27149,293.85938 c -7.36906,12.33562 -16.74171,23.6977 -28.31445,34.52344 -2.05755,1.92474 -4.31344,3.83682 -6.69727,5.72266 11.58474,13.5054 22.64429,27.47773 33.95899,41.20117 8.26222,9.87191 41.98384,48.98165 50.31928,58.78899 20.18923,-14.38308 43.24531,-36.92881 56.88286,-57.27561 -3.08981,-2.66691 -37.73807,-29.57635 -40.81738,-32.25557 -15.99691,-14.06727 -32.15894,-28.01468 -49.54883,-40.35547 -5.18831,-3.53479 -10.41959,-7.05588 -15.7832,-10.34961 z"
       sodipodi:nodetypes="ssssssscccscsssssssccccssssscsccccccc"
       transform="scale(0.26458333)"
       sodipodi:insensitive="true" /><path
       style="display:inline;fill:#2f2e41;fill-opacity:1;stroke:none;stroke-width:0;stroke-dasharray:none;stroke-opacity:1"
       d="m 290.13904,424.55215 c -5.74165,-2.13099 -6.1568,-4.91552 -6.1568,-41.29551 0,-33.48327 0.18233,-35.78247 3.08466,-38.89775 3.95264,-4.24266 11.43141,-6.21409 27.72911,-7.30947 11.60979,-0.7803 13.44798,-0.53488 16.62115,2.21911 3.56627,3.09515 3.56754,3.11114 3.0784,38.51942 l -0.48934,35.42299 -3.86776,3.86479 c -2.57198,2.57 -6.69729,4.34859 -12.31359,5.30888 -12.62359,2.15842 -25.08231,3.13382 -27.68583,2.16754 z"
       id="path7211"
       transform="scale(0.26458333)" /><path
       style="display:inline;fill:#2f2e41;fill-opacity:1;stroke:none;stroke-width:0;stroke-dasharray:none;stroke-opacity:1"
       d="m 394.95441,422.66 c -4.24831,-4.24831 -5.05214,-12.31245 -4.49069,-45.05146 0.48036,-28.0108 0.58796,-28.84116 4.24061,-32.72528 4.51942,-4.8058 10.63012,-6.5783 27.46699,-7.96721 11.95699,-0.98635 12.97924,-0.83063 16.54639,2.52053 3.7957,3.56588 3.80205,3.62281 3.80205,34.13696 0,33.35874 -0.91328,38.10338 -8.48002,44.05538 -5.01612,3.94568 -11.65963,5.77327 -25.72828,7.0777 -8.98943,0.83349 -10.74609,0.56433 -13.35705,-2.04662 z"
       id="path7213"
       transform="scale(0.26458333)" /></g></svg>
