<?xml version="1.0" encoding="UTF-8" standalone="no"?>
<!-- Created with Inkscape (http://www.inkscape.org/) -->

<svg
   width="119.09805mm"
   height="108.04969mm"
   viewBox="0 0 119.09805 108.04969"
   version="1.1"
   id="svg6088"
   inkscape:export-filename="bitmap.svg"
   inkscape:export-xdpi="96"
   inkscape:export-ydpi="96"
   xmlns:inkscape="http://www.inkscape.org/namespaces/inkscape"
   xmlns:sodipodi="http://sodipodi.sourceforge.net/DTD/sodipodi-0.dtd"
   xmlns="http://www.w3.org/2000/svg"
   xmlns:svg="http://www.w3.org/2000/svg">
  <sodipodi:namedview
     id="namedview6090"
     pagecolor="#ffffff"
     bordercolor="#000000"
     borderopacity="0.25"
     inkscape:showpageshadow="2"
     inkscape:pageopacity="0.0"
     inkscape:pagecheckerboard="0"
     inkscape:deskcolor="#d1d1d1"
     inkscape:document-units="mm"
     showgrid="false" />
  <defs
     id="defs6085" />
  <g
     inkscape:label="Layer 1"
     inkscape:groupmode="layer"
     id="layer1"
     transform="translate(-36.095043,-61.754811)">
    <path
       id="path3383"
       style="fill:#51a3a3;fill-opacity:1;stroke-width:0.264583"
       d="m 89.414918,61.759024 c -9.023845,0.112048 -18.198452,2.482376 -26.720332,7.346839 -1.091379,0.622966 -2.103439,1.152739 -2.248959,1.177189 -0.145521,0.02446 -0.562266,0.296517 -0.926041,0.604097 -0.363802,0.307581 -1.733049,1.4445 -3.042709,2.526461 -30.540519,25.230773 -26.018487,72.72409 8.598959,90.31128 1.091379,0.55449 2.135335,1.12195 2.319755,1.2609 0.02357,0.0178 0.01329,0.064 -0.0072,0.11989 0.089,-0.0156 0.174279,-0.0227 0.254765,-0.0217 0.278158,0.004 0.502437,0.10146 0.652673,0.25786 0.209226,0.0451 0.376613,0.14061 0.492477,0.27027 0.01301,0.004 0.02558,0.006 0.03876,0.0103 0.483288,0.16057 2.248289,0.76795 3.921724,1.34979 18.128058,6.30258 39.84005,1.84574 53.45256,-10.97298 0.93284,-0.87843 0.93307,-0.87812 6.08283,4.27674 5.15004,5.15511 5.15005,5.15473 15.33757,5.15473 10.18752,0 10.1877,-2.7e-4 -0.56638,-10.78177 -10.75409,-10.7815 -10.75434,-10.78178 -9.33121,-13.42761 7.40479,-13.76677 8.42688,-30.6832 2.72593,-45.110417 -0.40579,-1.02688 -0.61409,-1.561832 -0.54002,-2.027784 -0.12786,-0.278615 -0.25529,-0.557398 -0.38292,-0.836124 -0.34106,-0.128976 -0.65911,-0.741752 -1.28003,-1.945618 C 128.39359,72.19762 109.26742,61.512478 89.414956,61.758984 Z m 0.946713,14.445113 c 13.133219,0.137757 26.145649,6.636848 33.505449,18.979204 6.7043,11.242629 7.68538,25.049219 2.58072,36.314059 -0.41213,0.90951 -0.78875,1.65364 -0.83715,1.65364 -0.39511,0 -12.62514,-12.66689 -12.33982,-12.78061 0.21784,-0.0868 0.14985,-0.14998 -0.1757,-0.16278 -0.32323,-0.0127 -2.55367,-2.0538 -5.68854,-5.20537 -5.83145,-5.86231 -8.684804,-8.21526 -12.099004,-9.97871 -15.575203,-8.044231 -35.323211,-2.87113 -43.782861,11.46958 -1.245102,2.11044 -1.402473,1.7923 -1.160136,-2.34921 0.228245,-3.9009 1.238607,-8.95822 2.380733,-11.91555 1.151196,-2.980822 2.994597,-6.635606 3.431315,-6.803204 0.189172,-0.07259 0.344165,-0.285151 0.344165,-0.472322 0,-0.586502 1.87273,-3.194133 4.089673,-5.694743 7.903562,-8.914933 18.869419,-13.168125 29.751156,-13.053984 z M 79.192287,115.33714 h 5.16e-4 v 5.2e-4 c 2.909583,0.0285 8.087746,1.46354 10.621574,3.13314 0.811756,0.53489 2.414969,1.95609 4.050399,3.4985 0.49527,0.22543 0.97042,0.4985 1.37304,0.8692 0.26213,0.23962 0.50593,0.4975 0.73639,0.76791 0.14852,0.12176 0.30196,0.23666 0.46251,0.34209 0.16601,0.11258 0.33473,0.22022 0.50849,0.3204 0.12593,0.0615 0.23603,0.14762 0.3514,0.22582 0.0998,0.0713 0.19592,0.1467 0.29042,0.2248 0.10554,0.0889 0.21588,0.17156 0.31833,0.26406 0.11241,0.11563 0.22612,0.23134 0.3328,0.35244 0.0737,0.0978 0.16348,0.17995 0.25218,0.26355 0.16501,0.15295 0.3233,0.31272 0.47697,0.47697 0.16686,0.17502 0.32598,0.35699 0.49196,0.53278 0.10959,0.12299 0.21314,0.25113 0.31264,0.38241 0.0846,0.12485 0.16362,0.25377 0.243924,0.38137 0.0552,0.0975 0.12473,0.18397 0.18293,0.27957 0.0569,0.0914 0.10603,0.18952 0.16743,0.27802 0.0535,0.06 0.0909,0.13205 0.13539,0.19844 0.43911,0.24063 0.73499,0.6303 0.86403,1.10019 0.0474,0.0477 0.0945,0.0957 0.14108,0.14418 0.39864,0.41281 0.76284,0.8577 1.12913,1.29914 0.308,0.36456 0.61388,0.73002 0.92966,1.08831 0.3955,0.44215 0.8165,0.91566 1.25677,1.30586 0.0853,0.0756 0.1625,0.15175 0.23203,0.22841 0.003,-0.002 0.007,-0.001 0.009,-0.004 0.0664,-0.0664 2.76769,2.52865 6.00274,5.76605 6.51776,6.52264 6.44222,6.07076 1.55391,9.30951 -0.40801,0.27036 -0.7065,0.46354 -0.97359,0.56121 -3.4e-4,1.6e-4 -9.5e-4,3.5e-4 -10e-4,5.2e-4 -0.0124,0.006 -0.0249,0.0122 -0.0372,0.0186 -0.0975,0.0508 -0.19739,0.0952 -0.29559,0.14469 -0.16359,0.0819 -0.31773,0.1802 -0.47439,0.2744 -0.0931,0.0594 -0.19003,0.11644 -0.27957,0.18191 -0.4689,1.08216 -7.67632,4.04225 -12.678814,5.16764 -13.588925,3.05683 -30.854651,-3.04704 -35.25521,-12.46332 -5.142907,-11.00477 2.351842,-25.60251 13.564546,-26.42061 0.509297,-0.0372 1.145077,-0.1612 1.412834,-0.27544 0.369285,-0.15756 0.919643,-0.22558 1.590601,-0.21911 z" />
  </g>
</svg>
