<svg xmlns="http://www.w3.org/2000/svg" version="1.1" xmlns:xlink="http://www.w3.org/1999/xlink" xmlns:svgjs="http://svgjs.dev/svgjs" width="1440" height="250" preserveAspectRatio="none" viewBox="0 0 1440 250"><g mask="url(&quot;#SvgjsMask1021&quot;)" fill="none"><rect width="1440" height="250" x="0" y="0" fill="rgba(15, 102, 160, 1)"></rect><path d="M43 250L293 0L650 0L400 250z" fill="url(&quot;#SvgjsLinearGradient1022&quot;)"></path><path d="M240.60000000000002 250L490.6 0L718.6 0L468.6 250z" fill="url(&quot;#SvgjsLinearGradient1022&quot;)"></path><path d="M489.20000000000005 250L739.2 0L950.7 0L700.7 250z" fill="url(&quot;#SvgjsLinearGradient1022&quot;)"></path><path d="M725.8000000000001 250L975.8000000000001 0L1200.8000000000002 0L950.8000000000001 250z" fill="url(&quot;#SvgjsLinearGradient1022&quot;)"></path><path d="M1409 250L1159 0L938.5 0L1188.5 250z" fill="url(&quot;#SvgjsLinearGradient1023&quot;)"></path><path d="M1176.4 250L926.4000000000001 0L617.4000000000001 0L867.4000000000001 250z" fill="url(&quot;#SvgjsLinearGradient1023&quot;)"></path><path d="M933.8 250L683.8 0L406.29999999999995 0L656.3 250z" fill="url(&quot;#SvgjsLinearGradient1023&quot;)"></path><path d="M717.1999999999999 250L467.19999999999993 0L368.19999999999993 0L618.1999999999999 250z" fill="url(&quot;#SvgjsLinearGradient1023&quot;)"></path><path d="M1216.2041272329134 250L1440 26.20412723291338L1440 250z" fill="url(&quot;#SvgjsLinearGradient1022&quot;)"></path><path d="M0 250L223.79587276708662 250L 0 26.20412723291338z" fill="url(&quot;#SvgjsLinearGradient1023&quot;)"></path></g><defs><mask id="SvgjsMask1021"><rect width="1440" height="250" fill="#ffffff"></rect></mask><linearGradient x1="0%" y1="100%" x2="100%" y2="0%" id="SvgjsLinearGradient1022"><stop stop-color="rgba(255, 255, 255, 0.2)" offset="0"></stop><stop stop-opacity="0" stop-color="rgba(255, 255, 255, 0.2)" offset="0.66"></stop></linearGradient><linearGradient x1="100%" y1="100%" x2="0%" y2="0%" id="SvgjsLinearGradient1023"><stop stop-color="rgba(255, 255, 255, 0.2)" offset="0"></stop><stop stop-opacity="0" stop-color="rgba(255, 255, 255, 0.2)" offset="0.66"></stop></linearGradient></defs></svg>