<?xml version="1.0" encoding="UTF-8" standalone="no"?>
<svg
   viewBox="0 0 306.3 204.5"
   version="1.1"
   id="svg4"
   sodipodi:docname="klm-logo.svg"
   inkscape:version="1.2 (dc2aeda, 2022-05-15)"
   xmlns:inkscape="http://www.inkscape.org/namespaces/inkscape"
   xmlns:sodipodi="http://sodipodi.sourceforge.net/DTD/sodipodi-0.dtd"
   xmlns="http://www.w3.org/2000/svg"
   xmlns:svg="http://www.w3.org/2000/svg">
  <defs
     id="defs8" />
  <sodipodi:namedview
     id="namedview6"
     pagecolor="#ffffff"
     bordercolor="#000000"
     borderopacity="0.25"
     inkscape:showpageshadow="2"
     inkscape:pageopacity="0.0"
     inkscape:pagecheckerboard="0"
     inkscape:deskcolor="#d1d1d1"
     showgrid="false"
     inkscape:zoom="1.1540342"
     inkscape:cx="198.43432"
     inkscape:cy="138.64407"
     inkscape:window-width="1309"
     inkscape:window-height="456"
     inkscape:window-x="0"
     inkscape:window-y="38"
     inkscape:window-maximized="0"
     inkscape:current-layer="svg4" />
  <path
     fill="#0095db"
     d="m 149.38888,40.273054 h 9.50062 v -9.500623 h 9.50062 v -9.500622 h -9.50062 v -9.500623 h -9.50062 v 9.500623 h -9.50063 v 9.500622 h 9.50063 z m 61.45715,-2.375156 c -9.20373,0 -16.62609,7.422361 -16.62609,16.62609 0,9.203728 7.42236,16.626089 16.62609,16.626089 9.20373,0 16.62609,-7.422361 16.62609,-16.626089 0,-9.203729 -7.42236,-16.62609 -16.62609,-16.62609 M 97.283909,94.901632 H 210.84603 V 75.900389 H 97.283909 Z M 113.91,54.523988 c 0,-9.203729 -7.42236,-16.62609 -16.477645,-16.62609 -9.203728,0 -16.626089,7.422361 -16.626089,16.62609 0,9.203728 7.422361,16.626089 16.626089,16.626089 9.055285,0 16.477645,-7.422361 16.477645,-16.626089 m 42.60434,0 c 0,9.203728 7.42237,16.626089 16.62609,16.626089 9.20373,0 16.47765,-7.422361 16.47765,-16.626089 0,-9.203729 -7.42237,-16.62609 -16.47765,-16.62609 -9.20372,0 -16.62609,7.422361 -16.62609,16.62609 m -21.37638,16.626089 c 9.05527,0 16.62607,-7.422361 16.62607,-16.626089 0,-9.203729 -7.42235,-16.62609 -16.62607,-16.62609 -9.20374,0 -16.62609,7.422361 -16.62609,16.62609 0.14844,9.203728 7.42235,16.626089 16.62609,16.626089 m 123.06274,42.752813 -14.25094,42.75279 -14.25093,-42.75279 h -47.35467 v 75.85652 h 28.35342 v -57.00372 l 19.00125,56.85528 h 28.35342 l 18.8528,-56.85528 v 56.85528 h 28.35342 V 113.75444 H 258.2007 Z m -132.56337,0 H 97.283909 v 75.85652 h 75.708081 v -19.14969 h -47.35466 z m -37.854044,0 H 59.429865 L 30.927997,142.40475 V 113.90289 H 2.5745766 v 75.85652 H 30.927997 v -28.50186 l 28.501868,28.50186 h 37.854044 l -42.604355,-42.7528 z"
     id="path2"
     style="stroke-width:1.48447" />
</svg>
