<svg xmlns="http://www.w3.org/2000/svg" viewBox="0 0 306.3 204.5"><path fill="#0095db" d="M150 52.7h6.4v-6.4h6.4v-6.4h-6.4v-6.4H150v6.4h-6.4v6.4h6.4zm41.4-1.6c-6.2 0-11.2 5-11.2 11.2s5 11.2 11.2 11.2 11.2-5 11.2-11.2-5-11.2-11.2-11.2m-76.5 38.4h76.5V76.7h-76.5zm11.2-27.2c0-6.2-5-11.2-11.1-11.2-6.2 0-11.2 5-11.2 11.2s5 11.2 11.2 11.2c6.1 0 11.1-5 11.1-11.2m28.7 0c0 6.2 5 11.2 11.2 11.2s11.1-5 11.1-11.2-5-11.2-11.1-11.2c-6.2 0-11.2 5-11.2 11.2m-14.4 11.2c6.1 0 11.2-5 11.2-11.2s-5-11.2-11.2-11.2-11.2 5-11.2 11.2c.1 6.2 5 11.2 11.2 11.2m82.9 28.8-9.6 28.8-9.6-28.8h-31.9v51.1h19.1V115l12.8 38.3h19.1l12.7-38.3v38.3H255v-51.1h-31.7zm-89.3 0h-19.1v51.1h51v-12.9H134zm-25.5 0H89.4l-19.2 19.2v-19.2H51.1v51.1h19.1v-19.2l19.2 19.2h25.5l-28.7-28.8z"/></svg>