<?xml version="1.0" encoding="UTF-8" standalone="no"?>
<svg
   width="96"
   height="65"
   class="svg--brand-pggm"
   version="1.1"
   id="svg20"
   sodipodi:docname="pggm-logo.svg"
   inkscape:version="1.2 (dc2aeda, 2022-05-15)"
   xmlns:inkscape="http://www.inkscape.org/namespaces/inkscape"
   xmlns:sodipodi="http://sodipodi.sourceforge.net/DTD/sodipodi-0.dtd"
   xmlns:xlink="http://www.w3.org/1999/xlink"
   xmlns="http://www.w3.org/2000/svg"
   xmlns:svg="http://www.w3.org/2000/svg">
  <sodipodi:namedview
     id="namedview22"
     pagecolor="#ffffff"
     bordercolor="#000000"
     borderopacity="0.25"
     inkscape:showpageshadow="2"
     inkscape:pageopacity="0.0"
     inkscape:pagecheckerboard="0"
     inkscape:deskcolor="#d1d1d1"
     showgrid="false"
     inkscape:zoom="3.6307692"
     inkscape:cx="52.881356"
     inkscape:cy="32.5"
     inkscape:window-width="1309"
     inkscape:window-height="456"
     inkscape:window-x="0"
     inkscape:window-y="38"
     inkscape:window-maximized="0"
     inkscape:current-layer="svg20" />
  <defs
     id="defs3">
    <path
       id="a"
       d="M.475.407h57.467v18.557H.475z" />
  </defs>
  <g
     fill="none"
     fill-rule="evenodd"
     id="g18"
     transform="matrix(0.93349983,0,0,0.93349983,3.0296613,0.2072463)">
    <path
       fill="#898e90"
       d="M 27.432,39.225 C 18.612,44.631 11.625,46.422 0,44.926 13.605,43.07 18.13,39.101 28.097,35.534 c 4.97,-1.814 7.265,-2.214 9.371,-0.543 -2.833,0.14 -5.248,1.282 -10.036,4.234 M 56.576,24.405 C 74.133,22.406 83.235,13.892 91.953,0.168 78.844,13.108 63.158,17.98 50.963,22.448 c -5.81,2.144 -7.899,5.878 -8.438,9.526 2.531,-2.868 7.28,-6.833 14.05,-7.57"
       id="path5" />
    <path
       fill="#898e90"
       d="M 52.485,40.18 C 46.918,40.668 41.497,38.087 36.877,32.854 34.38,30.045 33.931,30.045 30.799,28.92 c 5.458,-1.136 6.927,0.57 11.515,4.553 2.807,2.011 5.956,3.485 9.042,4.196 5.586,0.581 10.597,-1.378 16.112,-2.869 0.02,0 -8.765,4.844 -14.983,5.38"
       id="path7" />
    <g
       transform="translate(13.348,45.69)"
       id="g14">
      <mask
         id="b"
         fill="#ffffff">
        <use
           xlink:href="#a"
           id="use9" />
      </mask>
      <path
         fill="#1d8551"
         d="m 10.06,11.942 c 3.128,0 6.055,-2.113 6.055,-5.59 0,-3.476 -2.927,-5.735 -6.055,-5.735 H 0.48 L 0.476,16.024 a 2.733,2.733 0 0 0 2.734,2.733 h 2.733 v -6.815 h 4.118 z M 5.942,8.494 V 4.142 h 2.465 c 1.395,0 2.176,0.897 2.176,2.176 0,1.28 -0.78,2.176 -2.176,2.176 z m 28.184,0.289 a 2.733,2.733 0 0 1 2.733,2.733 l -0.004,5.897 c 0,0 -2.96,1.582 -7.612,1.582 -6.508,0 -10.64,-3.696 -10.64,-8.926 0,-7.468 4.991,-9.662 10.383,-9.662 4.882,0 7.533,1.342 7.533,1.342 v 4.212 c 0,0 -2.078,-1.63 -6.281,-1.63 -4.204,0 -6.044,2.798 -6.044,5.594 0,2.796 2.54,5.848 7.9,4.64 V 8.78 l 2.032,0.004 M 55.209,8.783 a 2.733,2.733 0 0 1 2.733,2.733 l -0.003,5.897 c 0,0 -2.96,1.582 -7.613,1.582 -6.508,0 -10.639,-3.696 -10.639,-8.926 0,-7.468 4.991,-9.662 10.382,-9.662 4.882,0 7.533,1.342 7.533,1.342 v 4.212 c 0,0 -2.077,-1.63 -6.28,-1.63 -4.205,0 -6.045,2.798 -6.045,5.594 0,2.796 2.54,5.848 7.9,4.64 V 8.78 l 2.032,0.004"
         mask="url(#b)"
         id="path12" />
    </g>
    <path
       fill="#1d8551"
       d="m 85.072,60.044 -4.99,-6.088 v 7.758 a 2.733,2.733 0 0 1 -2.734,2.733 h -2.66 v -18.14 h 4.869 l 5.675,6.816 5.656,-6.816 h 4.87 v 15.407 a 2.734,2.734 0 0 1 -2.733,2.733 h -2.66 v -10.49 l -4.992,6.087 h -0.301"
       id="path16" />
  </g>
</svg>
