<?xml version="1.0" encoding="UTF-8" standalone="no"?>
<svg
   id="Logo"
   viewBox="0 0 53.28 48.999999"
   version="1.1"
   sodipodi:docname="wageningen-logo.svg"
   inkscape:version="1.2 (dc2aeda, 2022-05-15)"
   width="53.279999"
   height="49"
   xmlns:inkscape="http://www.inkscape.org/namespaces/inkscape"
   xmlns:sodipodi="http://sodipodi.sourceforge.net/DTD/sodipodi-0.dtd"
   xmlns="http://www.w3.org/2000/svg"
   xmlns:svg="http://www.w3.org/2000/svg">
  <sodipodi:namedview
     id="namedview71"
     pagecolor="#ffffff"
     bordercolor="#000000"
     borderopacity="0.25"
     inkscape:showpageshadow="2"
     inkscape:pageopacity="0.0"
     inkscape:pagecheckerboard="0"
     inkscape:deskcolor="#d1d1d1"
     showgrid="false"
     inkscape:zoom="10.746383"
     inkscape:cx="14.656095"
     inkscape:cy="25.310843"
     inkscape:window-width="1512"
     inkscape:window-height="916"
     inkscape:window-x="0"
     inkscape:window-y="38"
     inkscape:window-maximized="0"
     inkscape:current-layer="Logo" />
  <defs
     id="defs4">
    <style
       id="style2">.cls-1{fill:#005172;}.cls-2{fill:#008a00;}</style>
  </defs>
  <path
     class="cls-1"
     d="M 6.9020131,38.915642 5.6525688,42.339775 H 5.160805 L 4.2683447,39.921026 C 3.9805718,40.73699 3.6490865,41.556596 3.3795271,42.350703 H 2.8877633 L 1.6419618,38.915642 h 0.6666131 l 0.8268917,2.258471 0.8305344,-2.258471 h 0.6119727 l 0.8268918,2.258471 0.8305344,-2.258471 z"
     id="path6"
     style="stroke-width:0.364269" />
  <path
     class="cls-1"
     d="m 16.813786,39.855457 h -0.630187 v -0.269559 a 0.03278425,0.03278425 0 0 0 -0.03643,-0.03278 h -2.098192 a 0.03278425,0.03278425 0 0 0 -0.03278,0.03278 v 2.105478 a 0.03278425,0.03278425 0 0 0 0.03278,0.03278 h 2.098192 a 0.03278425,0.03278425 0 0 0 0.03643,-0.03278 v -0.6484 h -0.775894 v -0.626544 h 1.406081 v 1.274944 a 0.66297045,0.66297045 0 0 1 -0.666614,0.659327 H 14.04898 a 0.65932775,0.65932775 0 0 1 -0.659328,-0.659327 v -2.105478 a 0.65932775,0.65932775 0 0 1 0.659328,-0.670256 h 2.098192 a 0.66297045,0.66297045 0 0 1 0.666614,0.659328 z"
     id="path8"
     style="stroke-width:0.364269" />
  <path
     class="cls-1"
     d="m 21.971841,39.553114 h -2.517102 v 0.772251 h 2.043552 v 0.626544 H 19.46931 v 0.772251 h 2.517102 v 0.626543 h -3.150931 v -3.435061 h 3.150931 z"
     id="path10"
     style="stroke-width:0.364269" />
  <path
     class="cls-1"
     d="m 26.65999,38.915642 h 0.633828 v 3.424133 h -0.695754 l -2.112763,-2.509816 v 2.509816 h -0.619258 v -3.424133 h 0.684826 l 2.109121,2.51346 z"
     id="path12"
     style="stroke-width:0.364269" />
  <path
     class="cls-1"
     d="m 29.14795,38.915642 h 0.626544 v 3.424133 H 29.14795 Z"
     id="path14"
     style="stroke-width:0.364269" />
  <path
     class="cls-1"
     d="m 34.499069,38.915642 h 0.630186 v 3.424133 h -0.684827 l -2.112763,-2.509816 v 2.509816 h -0.633829 v -3.424133 h 0.684827 l 2.10912,2.51346 z"
     id="path16"
     style="stroke-width:0.364269" />
  <path
     class="cls-1"
     d="m 40.440303,39.855457 h -0.633829 v -0.269559 a 0.03278425,0.03278425 0 0 0 -0.03278,-0.03278 h -2.098192 a 0.03278425,0.03278425 0 0 0 -0.03278,0.03278 v 2.105478 a 0.03278425,0.03278425 0 0 0 0.03278,0.03278 h 2.098192 a 0.03278425,0.03278425 0 0 0 0.03278,-0.03278 v -0.6484 H 39.03058 v -0.626544 h 1.409723 v 1.274944 a 0.66297045,0.66297045 0 0 1 -0.666613,0.659327 h -2.098192 a 0.65932775,0.65932775 0 0 1 -0.66297,-0.659327 v -2.105478 a 0.65932775,0.65932775 0 0 1 0.6484,-0.670256 h 2.098191 a 0.66297045,0.66297045 0 0 1 0.681184,0.670256 z"
     id="path18"
     style="stroke-width:0.364269" />
  <path
     class="cls-1"
     d="m 45.540075,39.553114 h -2.549886 v 0.772251 h 2.025338 v 0.626544 h -2.025338 v 0.772251 h 2.549886 v 0.626543 h -3.169144 v -3.435061 h 3.169144 z"
     id="path20"
     style="stroke-width:0.364269" />
  <path
     class="cls-1"
     d="m 50.148084,38.915642 h 0.633829 v 3.424133 h -0.684826 l -2.112763,-2.509816 v 2.509816 h -0.622901 v -3.424133 h 0.684826 l 2.109121,2.51346 z"
     id="path22"
     style="stroke-width:0.364269" />
  <path
     class="cls-1"
     d="M 11.051042,39.585898 C 10.934476,39.181559 10.755984,38.915642 10.391715,38.915642 H 9.3571894 c -0.3642695,0 -0.5245481,0.254989 -0.6593278,0.659328 l -0.9944557,2.764805 h 0.6483997 l 0.4189099,-1.151091 h 2.2184015 l 0.41891,1.151091 h 0.637471 z m -2.0690502,0.98717 0.3424133,-0.98717 c 0,-0.02186 0,-0.03278 0.032784,-0.03278 H 10.399 c 0,0 0.02186,0 0.03278,0.03278 l 0.342413,0.98717 z"
     id="path24"
     style="stroke-width:0.364269" />
  <path
     class="cls-2"
     d="m 3.5029639,45.115101 h 0.3050637 v 1.731868 A 0.36755033,0.37979573 0 0 1 3.4404818,47.226765 H 2.1320009 A 0.36755033,0.37979573 0 0 1 1.764448,46.846969 v -1.731868 h 0.3124171 v 1.731868 a 0.06615906,0.06836323 0 0 0 0.062518,0.06456 h 1.3084735 a 0.06615906,0.06836323 0 0 0 0.062518,-0.06456 z"
     id="path26"
     style="stroke-width:0.373622" />
  <path
     class="cls-2"
     d="m 6.3036949,45.115101 h 0.3087477 v 2.111664 H 6.2448896 L 4.8739267,45.551866 v 1.690091 H 4.5651863 v -2.126856 h 0.3675456 l 1.370963,1.690091 z"
     id="path28"
     style="stroke-width:0.373622" />
  <path
     class="cls-2"
     d="m 7.3769474,45.115101 h 0.3087405 v 2.111664 H 7.3769474 Z"
     id="path30"
     style="stroke-width:0.373622" />
  <path
     class="cls-2"
     d="m 10.343071,45.115101 h 0.367554 L 9.5344608,47.226765 H 9.2257205 L 8.0311806,45.115101 h 0.367553 l 0.981357,1.754656 z"
     id="path32"
     style="stroke-width:0.373622" />
  <path
     class="cls-2"
     d="m 12.853445,45.430331 h -1.569438 v 0.581088 h 1.264368 v 0.319028 h -1.264368 v 0.581087 h 1.569438 v 0.315231 h -1.874509 v -2.111664 h 1.874509 z"
     id="path34"
     style="stroke-width:0.373622" />
  <path
     class="cls-2"
     d="m 15.6358,46.091176 a 0.36755033,0.37979573 0 0 1 -0.367552,0.379796 H 15.058749 L 15.6358,47.18119 v 0.04178 h -0.367552 l -0.613804,-0.759596 h -0.698347 -0.06252 v 0.759592 h -0.305064 v -2.107867 h 1.676026 a 0.36755033,0.37979573 0 0 1 0.367554,0.379796 z m -1.738516,-0.657047 v 0.721612 h 1.370964 a 0.06248356,0.06456528 0 0 0 0.06244,-0.06456 v -0.592482 a 0.06615906,0.06836323 0 0 0 -0.06244,-0.06456 z"
     id="path36"
     style="stroke-width:0.373622" />
  <path
     class="cls-2"
     d="m 32.304208,46.091176 a 0.36755033,0.37979573 0 0 1 -0.367554,0.379796 h -0.205829 l 0.573383,0.710218 v 0.04178 H 31.936654 L 31.32652,46.463378 h -0.702016 -0.06245 v 0.759592 h -0.305072 v -2.107867 h 1.676028 a 0.36755033,0.37979573 0 0 1 0.367552,0.379796 z m -1.738517,-0.657047 v 0.721612 h 1.370963 a 0.06248356,0.06456528 0 0 0 0.06252,-0.06456 v -0.592482 a 0.06615906,0.06836323 0 0 0 -0.06252,-0.06456 z"
     id="path38"
     style="stroke-width:0.373622" />
  <path
     class="cls-2"
     d="m 45.679366,46.091176 a 0.36755033,0.37979573 0 0 1 -0.367553,0.379796 h -0.20583 l 0.577052,0.710218 v 0.04178 h -0.367546 l -0.613811,-0.759592 h -0.698345 -0.06252 v 0.759592 h -0.30874 V 45.115103 H 45.3081 a 0.36755033,0.37979573 0 0 1 0.367553,0.379796 z M 43.94085,45.434129 v 0.721612 h 1.367286 a 0.06248356,0.06456528 0 0 0 0.06245,-0.06456 v -0.592482 a 0.06615906,0.06836323 0 0 0 -0.06245,-0.06456 z"
     id="path40"
     style="stroke-width:0.373622" />
  <path
     class="cls-2"
     d="m 18.414478,45.62023 h -0.30874 v -0.125333 a 0.06248356,0.06456528 0 0 0 -0.06245,-0.06456 h -1.304805 a 0.06615906,0.06836323 0 0 0 -0.06245,0.06456 v 0.436764 a 0.06248356,0.06456528 0 0 0 0.06245,0.06456 h 1.304805 a 0.36755033,0.37979573 0 0 1 0.367546,0.379795 v 0.451957 a 0.36755033,0.37979573 0 0 1 -0.367546,0.379796 h -1.304805 a 0.36755033,0.37979573 0 0 1 -0.367552,-0.379796 v -0.125332 h 0.30874 v 0.125332 a 0.06615906,0.06836323 0 0 0 0.06252,0.06456 h 1.304804 a 0.06248356,0.06456528 0 0 0 0.06245,-0.06456 V 46.39501 a 0.06248356,0.06456528 0 0 0 -0.06245,-0.06456 h -1.3048 A 0.36755033,0.37979573 0 0 1 16.374641,45.950651 V 45.494896 A 0.36755033,0.37979573 0 0 1 16.742195,45.1151 h 1.304803 a 0.36755033,0.37979573 0 0 1 0.367546,0.379796 z"
     id="path42"
     style="stroke-width:0.373622" />
  <path
     class="cls-2"
     d="m 19.164284,45.115101 h 0.308741 v 2.111664 h -0.308741 z"
     id="path44"
     style="stroke-width:0.373622" />
  <path
     class="cls-2"
     d="m 22.020151,45.115101 v 0.31523 h -0.867423 v 1.796434 h -0.305064 v -1.796434 h -0.871093 v -0.31523 z"
     id="path46"
     style="stroke-width:0.373622" />
  <path
     class="cls-2"
     d="m 24.427606,45.115101 -0.940934,1.321689 v 0.789975 H 23.177931 V 46.43679 l -0.940928,-1.321689 h 0.367553 l 0.735099,0.960883 0.735098,-0.960883 z"
     id="path48"
     style="stroke-width:0.373622" />
  <path
     class="cls-2"
     d="m 34.932192,45.430331 h -1.569439 v 0.581088 h 1.264376 v 0.319028 h -1.264376 v 0.581087 h 1.569439 v 0.315231 h -1.87451 v -2.111664 h 1.87451 z"
     id="path50"
     style="stroke-width:0.373622" />
  <path
     class="cls-2"
     d="m 37.600605,45.62023 h -0.305063 v -0.125333 a 0.06615906,0.06836323 0 0 0 -0.06252,-0.06456 h -1.308481 a 0.06615906,0.06836323 0 0 0 -0.06252,0.06456 v 0.436764 a 0.06248356,0.06456528 0 0 0 0.06252,0.06456 h 1.308481 a 0.36755033,0.37979573 0 0 1 0.367545,0.379795 v 0.451957 a 0.36755033,0.37979573 0 0 1 -0.367545,0.379796 H 35.92454 a 0.36755033,0.37979573 0 0 1 -0.367554,-0.379792 v -0.125332 h 0.305071 v 0.125332 a 0.06615906,0.06836323 0 0 0 0.06252,0.06456 h 1.308481 a 0.06615906,0.06836323 0 0 0 0.06252,-0.06456 V 46.39501 a 0.06615906,0.06836323 0 0 0 -0.06252,-0.06456 H 35.924579 A 0.36755033,0.37979573 0 0 1 35.557026,45.950651 V 45.494896 A 0.36755033,0.37979573 0 0 1 35.924579,45.1151 h 1.308481 a 0.36755033,0.37979573 0 0 1 0.367545,0.379796 z"
     id="path52"
     style="stroke-width:0.373622" />
  <path
     class="cls-2"
     d="m 40.232267,45.430331 h -1.569439 v 0.581088 h 1.271721 v 0.319028 h -1.260698 v 0.581087 h 1.569446 v 0.315231 h -1.874509 v -2.111664 h 1.874509 z"
     id="path54"
     style="stroke-width:0.373622" />
  <path
     class="cls-2"
     d="m 42.194988,45.115101 c 0.205829,0 0.32344,0.159514 0.400629,0.379796 l 0.595428,1.731868 H 42.874951 L 42.60664,46.486164 h -1.418738 l -0.260965,0.740601 h -0.308741 l 0.617481,-1.731868 c 0.08086,-0.235474 0.1654,-0.379796 0.367553,-0.379796 z m 0.316094,1.055832 -0.253612,-0.676036 c 0,-0.03798 -0.0294,-0.06456 -0.06245,-0.06456 h -0.595436 c -0.03676,0 -0.04414,0 -0.06245,0.06456 l -0.246258,0.676036 z"
     id="path56"
     style="stroke-width:0.373622" />
  <path
     class="cls-2"
     d="m 46.741581,45.430331 a 0.06248356,0.06456528 0 0 0 -0.0588,0.06456 v 1.352072 a 0.06248356,0.06456528 0 0 0 0.0588,0.06456 h 1.672358 v 0.315231 h -1.672358 a 0.36755033,0.37979573 0 0 1 -0.367545,-0.379788 v -1.352073 a 0.36755033,0.37979573 0 0 1 0.367545,-0.379796 h 1.672358 v 0.315234 z"
     id="path58"
     style="stroke-width:0.373622" />
  <path
     class="cls-2"
     d="m 51.108082,45.115101 v 2.111664 h -0.305063 v -0.896318 h -1.470206 v 0.896318 h -0.30874 v -2.111664 h 0.30874 v 0.896318 h 1.470206 v -0.896318 z"
     id="path60"
     style="stroke-width:0.373622" />
  <path
     class="cls-2"
     d="m 28.393472,46.915333 -0.367554,-0.231676 v -0.607673 h -0.30874 v 0.406381 l -1.124705,-0.729208 v 0 a 0.06248356,0.06456528 0 0 1 -0.03305,-0.05697 v -0.193696 a 0.06615906,0.06836323 0 0 1 0.06245,-0.06456 h 0.757151 a 0.06615906,0.06836323 0 0 1 0.06252,0.06456 v 0.140524 h 0.305072 v -0.20509 A 0.36755033,0.37979573 0 0 0 27.37906,45.118897 h -0.757151 a 0.36755033,0.37979573 0 0 0 -0.367553,0.379796 v 0.235473 c 0,0.110141 0.0588,0.148121 0.158046,0.208888 h -0.05515 c -0.20583,0 -0.367554,0.06076 -0.367554,0.273453 v 0.630461 a 0.36755033,0.37979573 0 0 0 0.367554,0.379796 h 1.304804 a 0.36755033,0.37979573 0 0 0 0.349169,-0.250665 v 0 l 0.367553,0.250665 z m -0.668941,-0.06836 a 0.05880805,0.06076731 0 0 1 -0.06252,0.06456 h -1.304805 a 0.06248356,0.06456528 0 0 1 -0.06252,-0.06456 v -0.630461 a 0.06248356,0.06456528 0 0 1 0,-0.02659 0.07718557,0.0797571 0 0 1 0.07351,-0.03798 h 0.367554 l 0.981356,0.641854 z"
     id="path62"
     style="stroke-width:0.373622" />
  <path
     class="cls-1"
     d="M 39.18,32.03"
     id="path64" />
  <path
     class="cls-1"
     d="m 52.98,25.98 c 0.54,-0.5 -1.2,-1.09 -1.2,-1.09 0,0 -1.86,-0.85 -9.26,-1.46 v 2.55 H 31.08 v -2.92 c -2.28,-0.06 -6.79,0 -9.93,0 v 2.92 H 9.75 v -2.55 a 70.7,70.7 0 0 0 -8.23,1 l -0.61,0.5 c -0.62,0.41 0,0.57 0.43,0.77 0.16,0.08 0.17,0.13 0.11,0.3 -0.06,0.17 -0.42,0.21 -0.35,0.44 0.15,0.48 0.85,0 0.8,0.65 -0.05,0.65 -1.71,0.32 -1.88,1 -0.13,0.54 0.61,0 0.6,1.09 -0.01,1.09 0.76,2.1 2.91,2.63 0.51,0.13 2.91,0.09 1.68,0.8 A 3.66,3.66 0 0 1 4.4,32.7 c -0.24,0 -0.78,0 -0.93,0.21 -0.15,0.21 0.26,0.33 0.19,0.64 -0.28,0 -0.88,0 -0.62,0.5 a 1,1 0 0 0 0.83,0.36 3.81,3.81 0 0 1 1.57,0.1 c -0.75,0.14 -1.42,0.92 1.39,0.84 0.06,0.43 0.82,0.39 1.08,0.33 17.52,-3.88 25.1,-2.23 25.15,-3.3 -0.25,-0.53 -2.72,-0.48 -3.13,-0.5 -1.6,-0.07 -5,0.1 -4.81,-0.31 0.09,-1 17.85,-0.73 15.77,-0.13 -0.1,0 -1.34,0.24 -1.5,0.32 -1,0.51 2.72,0.62 3.11,0.65 0.39,0.03 1.54,0 1.34,0.48 -0.06,0.15 -1.38,0 -1.32,0.2 0.06,0.2 0.79,0.08 0.86,0.2 0.54,0.84 -6.53,0.43 -10.18,0.5 -1.07,0 -3.17,0.15 -4.26,0.29 -1.85,0.25 -0.27,0.68 2.6,0.95 1.54,0.14 9.46,0.78 16.18,1.66 2,0.37 2.62,-0.63 2.17,-0.9 -0.26,-0.15 0.85,-0.71 -0.39,-1.24 -0.78,-0.33 -0.14,-0.47 -0.09,-0.45 0.05,0.02 1.72,0.41 1.12,-0.12 -0.38,-0.35 0.26,-0.15 0.38,-0.16 1.49,-0.11 1.14,-0.67 1.24,-0.58 -0.45,-0.44 0.75,-0.75 0.48,-1.72 -0.09,-0.29 -1.8,-0.23 -0.67,-0.46 0.12,0 1.69,0 0.24,-0.84 A 3.76,3.76 0 0 0 51.06,29.9 c -1.07,-0.24 -0.27,-0.78 0.27,-0.69 0.54,0.09 1.31,-0.33 1.2,-1 -0.14,-0.83 -0.43,-2.06 0.45,-2.23 z"
     id="path66" />
  <polygon
     class="cls-2"
     points="40.78,0 11.44,0 11.44,25.98 21.15,25.98 21.15,9.79 31.07,9.79 31.07,25.98 40.78,25.98 "
     id="polygon68" />
  <path
     style="fill:#2f2e41;fill-opacity:1;stroke-width:0.272121"
     d="m 44.491828,36.195507 c -1.496667,-0.195664 -5.530331,-0.62016 -8.963699,-0.943324 -3.433365,-0.323165 -6.415199,-0.684228 -6.626295,-0.802363 -0.609919,-0.341329 2.827768,-0.566665 8.677295,-0.568787 4.989324,-0.0018 5.374308,-0.03797 5.977938,-0.561497 0.857751,-0.743923 0.368708,-1.061922 -1.650391,-1.073165 -0.823167,-0.0046 -1.680349,-0.127038 -1.904849,-0.272121 -0.318074,-0.205557 -0.242988,-0.264708 0.340152,-0.267955 0.902093,-0.005 0.989172,-0.420391 0.13606,-0.649016 -0.801326,-0.214747 -13.438317,-0.158172 -14.468008,0.06477 -0.436653,0.09454 -0.844835,0.324963 -0.907071,0.512046 -0.08613,0.258908 0.688444,0.34663 3.243007,0.367277 3.827443,0.03093 5.537213,0.324548 3.492222,0.59971 -0.6735,0.09062 -2.93891,0.236154 -5.034244,0.323405 -4.543715,0.189203 -10.729523,0.951903 -15.369518,1.895034 -3.7783244,0.767988 -6.33316,0.7293 -6.1993302,-0.09388 0.053044,-0.326271 -0.1896718,-0.459962 -0.9491867,-0.522822 -0.5612502,-0.04645 -1.0204548,-0.19952 -1.0204548,-0.340152 0,-0.140632 0.1224546,-0.255695 0.2721213,-0.255695 0.1496667,0 0.2721212,-0.175923 0.2721212,-0.390941 0,-0.239784 0.3338458,-0.42391 0.8634376,-0.476212 C 5.8114646,32.627405 5.9646017,32.066656 4.9125972,31.862976 4.4556694,31.77451 3.7115219,31.630527 3.2589366,31.543014 2.1557778,31.329706 0.81636382,30.165159 0.81636382,29.419332 c 0,-0.330929 -0.1520446,-0.753734 -0.33787688,-0.939566 -0.26908831,-0.269088 -0.25523797,-0.390123 0.0680303,-0.5945 0.22324895,-0.141143 0.62020276,-0.258498 0.88211946,-0.26079 0.2934091,-0.0026 0.4762122,-0.213085 0.4762122,-0.548409 0,-0.299334 -0.1296814,-0.544243 -0.288181,-0.544243 -0.1584996,0 -0.2010189,-0.141031 -0.094487,-0.313403 C 1.6287122,26.046049 1.5031769,25.74949 1.2432132,25.5594 0.80352381,25.237891 0.81486068,25.18551 1.4057308,24.808498 1.7550791,24.585591 3.204228,24.267317 4.6260617,24.10122 6.0478953,23.935124 7.7316457,23.733058 8.3677292,23.652185 l 1.1565154,-0.147042 v 1.241219 1.24122 h 5.8506074 5.850607 v -1.360607 -1.360606 h 4.898183 4.898183 v 1.360606 1.360607 h 5.850608 5.850607 v -1.233919 -1.233918 l 1.428637,0.16936 c 6.434307,0.762768 9.580971,1.684713 8.34892,2.446162 -0.160013,0.09889 -0.258431,0.629965 -0.218704,1.180159 0.09157,1.268306 -0.09372,1.554856 -1.140817,1.764277 -1.046592,0.209318 -0.929729,0.749816 0.226928,1.049535 1.012255,0.262302 1.419392,0.756527 0.62322,0.756527 -0.308167,0 -0.560303,0.122454 -0.560303,0.272121 0,0.149667 0.244909,0.272121 0.544242,0.272121 0.656313,0 0.673974,0.200572 0.116131,1.318798 -0.304036,0.609454 -0.619506,0.858172 -1.088485,0.858172 -0.363206,0 -0.660373,0.130707 -0.660373,0.290459 0,0.16237 -0.229905,0.21749 -0.521341,0.124992 -0.715072,-0.226955 -0.979539,0.306692 -0.325471,0.656739 0.416966,0.223154 0.486776,0.442217 0.329544,1.034108 -0.17724,0.667206 -0.334056,0.755828 -1.405811,0.79448 -0.663472,0.02393 -2.430862,-0.116584 -3.927529,-0.312248 z"
     id="path1655" />
  <path
     style="fill:#2f2e41;fill-opacity:1;stroke-width:0.272121"
     d=""
     id="path1726" />
  <path
     style="fill:#2f2e41;fill-opacity:1;stroke-width:0.0991254"
     d="m 7.8373088,42.192623 c 0,-0.198112 1.0295123,-2.889812 1.1607509,-3.034829 0.2298104,-0.253937 1.5141313,-0.252502 1.7444063,0.0019 0.139905,0.154592 1.158987,2.80608 1.158987,3.015496 0,0.04314 -0.105928,0.07844 -0.235397,0.07844 -0.194131,0 -0.26819,-0.09123 -0.42247,-0.520409 l -0.187074,-0.52038 H 9.8819265 8.7073406 L 8.5132109,41.73325 c -0.1610651,0.431771 -0.2351582,0.520408 -0.4350161,0.520408 -0.1324874,0 -0.240886,-0.02747 -0.240886,-0.06105 z m 2.9282162,-1.79206 C 10.728654,40.253654 10.635935,39.98375 10.559483,39.800775 10.422347,39.472562 10.412912,39.468494 9.8570949,39.49791 9.3114506,39.52679 9.2899536,39.53865 9.1744222,39.874665 8.8719343,40.75443 8.7954552,40.667669 9.873447,40.667669 h 0.959118 z"
     id="path1728" />
  <path
     style="fill:#2f2e41;fill-opacity:1;stroke-width:0.0991254"
     d="M 2.3598764,40.741425 C 2.0459796,39.855814 1.7894923,39.097769 1.789905,39.05688 c 4.007e-4,-0.04089 0.1085768,-0.07434 0.2403651,-0.07434 0.1912691,0 0.2711891,0.085 0.3961048,0.421283 0.086069,0.231706 0.2604206,0.702992 0.3874476,1.047303 0.1270269,0.344311 0.2721767,0.632133 0.3225548,0.639604 0.050378,0.0075 0.2647051,-0.463816 0.4762819,-1.047304 0.3621979,-0.998871 0.40066,-1.060886 0.6579672,-1.060886 0.2566592,0 0.2965693,0.06335 0.6561324,1.041468 0.2105676,0.572808 0.4262242,1.044822 0.4792367,1.048921 0.053013,0.0041 0.2699015,-0.464563 0.4819759,-1.041469 0.3624146,-0.985877 0.4020278,-1.04892 0.6590971,-1.04892 H 6.8205766 L 6.224843,40.61811 c -0.5269052,1.446604 -0.6212339,1.63557 -0.8164473,1.63557 -0.1917832,0 -0.2776877,-0.155881 -0.6553774,-1.189242 -0.2390653,-0.654088 -0.4573509,-1.189366 -0.4850791,-1.18951 -0.027728,-1.45e-4 -0.250377,0.557318 -0.4947748,1.238806 -0.6211698,1.73209 -0.6721643,1.718657 -1.413288,-0.372309 z"
     id="path1730" />
  <path
     style="fill:#2f2e41;fill-opacity:1;stroke-width:0.0398154"
     d="m 13.744977,42.239152 c -0.303929,-0.178157 -0.297263,-0.144394 -0.310106,-1.570617 -0.01146,-1.272971 -0.01128,-1.27619 0.07963,-1.409791 0.05012,-0.07365 0.141671,-0.171387 0.203456,-0.217197 0.10733,-0.07958 0.166499,-0.08381 1.327757,-0.09492 1.152898,-0.01102 1.223926,-0.0075 1.380747,0.06909 0.226274,0.110463 0.338304,0.289684 0.369872,0.591705 l 0.02578,0.246681 h -0.304284 -0.304288 v -0.159892 -0.159893 l -1.104881,0.01058 -1.104882,0.01058 -0.01059,1.084974 -0.01059,1.084974 h 1.115476 1.115475 v -0.358337 -0.35834 H 15.815386 15.41723 v -0.278703 -0.278708 h 0.700639 0.700641 l -0.01382,0.706726 c -0.01291,0.659834 -0.02003,0.716714 -0.107419,0.857271 -0.184174,0.296234 -0.243007,0.307453 -1.60693,0.306418 -1.143399,-8.74e-4 -1.213241,-0.0052 -1.345361,-0.0826 z"
     id="path1732" />
  <path
     style="fill:#2f2e41;fill-opacity:1;stroke-width:0.0398154"
     d="m 18.841368,40.630507 v -1.69216 h 1.552804 1.552808 v 0.298617 0.298616 h -1.254191 -1.254191 v 0.398155 0.398156 h 1.0153 1.015295 v 0.298616 0.298617 h -1.015295 -1.0153 v 0.398156 0.398155 h 1.274099 1.274098 v 0.298616 0.298617 h -1.572716 -1.572711 z"
     id="path1734" />
  <path
     style="fill:#2f2e41;fill-opacity:1;stroke-width:0.0398154"
     d="m 23.897942,40.630507 v -1.69216 l 0.328476,0.0025 0.32848,0.0025 0.875941,1.052482 c 0.481768,0.578865 0.960272,1.146587 1.063342,1.261605 l 0.187399,0.209124 0.0018,-1.264144 0.0018,-1.264143 h 0.298618 0.298613 v 1.69216 1.692161 h -0.333632 -0.333678 l -1.050106,-1.25226 c -0.577454,-0.688742 -1.063349,-1.253127 -1.079774,-1.25419 -0.01643,-0.0011 -0.02987,0.562454 -0.02987,1.252258 v 1.25419 h -0.278709 -0.278707 z"
     id="path1736" />
  <path
     style="fill:#2f2e41;fill-opacity:1;stroke-width:0.0398154"
     d="m 29.153593,40.630507 v -1.69216 h 0.298617 0.298617 v 1.69216 1.692161 H 29.45221 29.153593 Z"
     id="path1738" />
  <path
     style="fill:#2f2e41;fill-opacity:1;stroke-width:0.0398154"
     d="m 31.701789,40.630507 v -1.69216 h 0.334042 0.334042 l 1.0445,1.244236 c 0.574474,0.684329 1.060209,1.250208 1.07941,1.257507 0.01956,0.0074 0.0349,-0.540177 0.0349,-1.244235 v -1.257508 h 0.298617 0.298617 v 1.69216 1.692161 h -0.332574 -0.332574 l -1.045596,-1.244235 c -0.575076,-0.68433 -1.06147,-1.250209 -1.080878,-1.257508 -0.02004,-0.0075 -0.0353,0.530131 -0.0353,1.244236 v 1.257507 h -0.298617 -0.298614 z"
     id="path1740" />
  <path
     style="fill:#2f2e41;fill-opacity:1;stroke-width:0.0398154"
     d="m 37.355189,42.233083 c -0.0724,-0.04927 -0.169108,-0.140171 -0.214919,-0.201997 -0.08048,-0.108617 -0.08329,-0.155907 -0.08329,-1.400579 0,-1.238937 0.0033,-1.292367 0.08209,-1.398118 0.04515,-0.06047 0.13157,-0.146893 0.192043,-0.192043 0.105722,-0.07893 0.159251,-0.08209 1.391086,-0.08209 1.278516,0 1.281394,1.89e-4 1.411431,0.09294 0.17819,0.127093 0.287762,0.356415 0.287762,0.602248 v 0.200664 h -0.298617 -0.298618 v -0.159263 -0.159262 h -1.094924 -1.094928 v 1.094927 1.094928 h 1.094928 1.094924 v -0.35834 -0.35834 h -0.378248 -0.378247 v -0.278712 -0.278708 h 0.679327 0.679326 l -0.01242,0.729867 -0.01242,0.729868 -0.114742,0.150299 c -0.193955,0.25406 -0.237991,0.261296 -1.59016,0.261296 -1.189025,0 -1.212022,-0.0015 -1.341392,-0.08958 z"
     id="path1742" />
  <path
     style="fill:#2f2e41;fill-opacity:1;stroke-width:0.0398154"
     d="m 42.372352,40.630507 v -1.69216 h 1.572715 1.572711 v 0.298617 0.298616 H 44.24368 42.969586 v 0.398155 0.398156 h 1.015296 1.015295 v 0.298616 0.298617 h -1.015295 -1.015296 v 0.398156 0.398155 h 1.274094 1.274098 v 0.298616 0.298617 h -1.572711 -1.572715 z"
     id="path1744" />
  <path
     style="fill:#121119;fill-opacity:1;stroke-width:0.0398154"
     d="m 47.389111,40.630507 v -1.69216 l 0.328476,0.0019 0.32848,0.0019 1.05511,1.262242 1.055114,1.262241 0.01053,-1.264143 0.01053,-1.264144 h 0.298056 0.298056 v 1.692161 1.69216 h -0.329707 -0.329711 l -1.053879,-1.253958 c -0.579637,-0.689677 -1.067317,-1.254063 -1.083742,-1.25419 -0.01643,-1.27e-4 -0.02987,0.564154 -0.02987,1.253959 v 1.254189 h -0.27871 -0.278706 z"
     id="path1746" />
  <path
     style="fill:#121119;fill-opacity:1;stroke-width:0.0398154"
     d="m 42.372352,40.630507 v -1.69216 h 1.572715 1.572711 v 0.298617 0.298616 H 44.24368 42.969586 v 0.398155 0.398156 h 1.015296 1.015295 v 0.298616 0.298617 h -1.015295 -1.015296 v 0.398156 0.398155 h 1.274094 1.274098 v 0.298616 0.298617 h -1.572711 -1.572715 z"
     id="path3942" />
  <path
     style="fill:#121119;fill-opacity:1;stroke-width:0.0398154"
     d="m 37.807006,42.294404 c -0.35856,-0.0142 -0.367758,-0.01707 -0.537508,-0.16771 l -0.172704,-0.153262 v -1.337709 -1.337709 l 0.14997,-0.149972 0.149974,-0.149972 h 1.310327 c 1.260274,0 1.314521,0.0031 1.42001,0.08189 0.14574,0.10881 0.244374,0.309692 0.277482,0.565115 l 0.0271,0.209032 H 40.127911 39.824164 V 39.694844 39.535582 H 38.72924 37.634312 v 1.094927 1.094928 h 1.094928 1.094924 v -0.35834 -0.35834 H 39.44592 39.067673 v -0.278711 -0.278708 h 0.674369 0.674365 l -0.02248,0.726633 c -0.02157,0.695963 -0.0267,0.732274 -0.122201,0.860259 -0.05483,0.07349 -0.155569,0.156378 -0.223855,0.184188 -0.131115,0.0534 -1.555063,0.09914 -2.24084,0.07199 z"
     id="path3944" />
  <path
     style="fill:#121119;fill-opacity:1;stroke-width:0.0398154"
     d="m 31.701789,40.630507 v -1.69216 h 0.335113 c 0.184313,0 0.341087,0.01582 0.348384,0.03515 0.02655,0.07036 2.075553,2.473226 2.108985,2.473226 0.01894,0 0.03442,-0.564385 0.03442,-1.25419 v -1.254189 h 0.298617 0.298617 v 1.693771 1.69377 l -0.327201,-0.01157 -0.327198,-0.01157 -0.55295,-0.656956 c -1.139133,-1.353404 -1.553118,-1.831515 -1.585858,-1.831515 -0.01854,0 -0.0337,0.564385 -0.0337,1.254189 v 1.25419 h -0.298617 -0.298614 z"
     id="path3946" />
  <path
     style="fill:#121119;fill-opacity:1;stroke-width:0.0398154"
     d="m 29.153593,40.630507 v -1.69216 h 0.298617 0.298617 v 1.69216 1.692161 H 29.45221 29.153593 Z"
     id="path3948" />
  <path
     style="fill:#121119;fill-opacity:1;stroke-width:0.0398154"
     d="m 23.897942,40.631754 v -1.690915 l 0.328476,0.02358 c 0.180663,0.01296 0.348005,0.04376 0.371872,0.06843 0.02386,0.02467 0.46283,0.544393 0.975477,1.154938 0.512651,0.610545 0.971762,1.157014 1.020246,1.214374 l 0.08815,0.104293 0.0015,-1.284052 0.0015,-1.284051 h 0.298618 0.298613 v 1.692161 1.69216 l -0.328476,-0.0027 -0.32848,-0.0027 -0.608068,-0.731961 c -0.940226,-1.131616 -1.492058,-1.771013 -1.528623,-1.771013 -0.01832,0 -0.03333,0.564385 -0.03333,1.254189 v 1.25419 h -0.27871 -0.278706 z"
     id="path3950" />
  <path
     style="fill:#121119;fill-opacity:1;stroke-width:0.0398154"
     d="m 18.841368,40.630507 v -1.69216 h 1.552804 1.552808 v 0.298617 0.298616 h -1.254191 -1.254191 v 0.398155 0.398156 h 1.0153 1.015295 v 0.298616 0.298617 h -1.015295 -1.0153 v 0.398156 0.398155 h 1.274099 1.274098 v 0.298616 0.298617 h -1.572716 -1.572711 z"
     id="path3952" />
  <path
     style="fill:#121119;fill-opacity:1;stroke-width:0.0398154"
     d="m 14.401934,42.283258 c -0.497997,-0.01694 -0.615696,-0.03283 -0.708343,-0.09563 -0.20426,-0.138458 -0.206571,-0.154714 -0.219829,-1.546072 l -0.01241,-1.302864 0.158816,-0.170311 0.158816,-0.170312 1.258756,-0.01157 c 1.23802,-0.01138 1.261352,-0.01011 1.416354,0.07701 0.18079,0.101609 0.295587,0.309753 0.331729,0.601472 l 0.02343,0.189123 H 16.511399 16.213544 V 39.694842 39.53558 h -1.114835 -1.114835 v 1.094927 1.094928 h 1.114835 1.114835 v -0.358339 -0.35834 H 15.815386 15.41723 v -0.27871 -0.278708 h 0.698378 0.698378 l -0.02334,0.627095 c -0.01284,0.344902 -0.03163,0.679349 -0.04175,0.743216 -0.02644,0.166747 -0.194759,0.368636 -0.34579,0.414755 -0.161583,0.04934 -1.207838,0.07384 -2.001171,0.04685 z"
     id="path3954" />
  <path
     style="fill:#121119;fill-opacity:1;stroke-width:0.0398154"
     d="m 7.9029943,42.210802 c -0.066456,-0.04222 -0.029196,-0.168712 0.3482015,-1.182139 0.4117673,-1.105715 0.7017838,-1.786476 0.7982718,-1.873796 0.1660034,-0.150231 0.7978562,-0.217373 1.2533034,-0.133179 0.395925,0.07319 0.42567,0.101306 0.637218,0.602316 0.261174,0.618541 0.701355,1.77043 0.838076,2.193124 0.123702,0.382444 0.113297,0.423993 -0.10651,0.425299 -0.181907,0.0011 -0.274069,-0.145617 -0.53152,-0.846049 l -0.06973,-0.189702 -1.1950874,0.01053 -1.1950876,0.01053 -0.1485641,0.396851 c -0.168899,0.45117 -0.2952043,0.618746 -0.4656748,0.617835 -0.062743,-3.35e-4 -0.1360481,-0.01457 -0.1628998,-0.03163 z m 2.9352017,-1.590248 c -4.37e-4,-0.12259 -0.304983,-0.964474 -0.378138,-1.04531 -0.100492,-0.111042 -0.262779,-0.12999 -0.7165426,-0.08366 -0.476607,0.04866 -0.4806074,0.05217 -0.653875,0.572254 -0.1476658,0.443241 -0.1529484,0.537098 -0.032945,0.585334 0.049272,0.01981 0.4703211,0.03714 0.9356651,0.03853 0.7802995,0.0023 0.8460615,-0.0029 0.8458345,-0.06715 z"
     id="path3956" />
  <path
     style="fill:#121119;fill-opacity:1;stroke-width:0.0398154"
     d="M 3.0351606,42.274286 C 2.8737357,42.101017 2.6361089,41.500967 2.0623804,39.817843 1.779707,38.988577 1.7796978,39.001717 2.0629268,39.025279 c 0.1961194,0.01632 0.2209754,0.06011 0.5895075,1.038762 0.3200446,0.849889 0.4100983,1.03247 0.5006396,1.015034 0.066628,-0.01283 0.241071,-0.402269 0.5576266,-1.244878 0.2600783,-0.692278 0.3449071,-0.816219 0.5586444,-0.816219 0.2105394,0 0.2856401,0.09008 0.4624197,0.554637 0.4040074,1.061691 0.6097822,1.515771 0.6868991,1.515771 0.045592,0 0.31574,-0.595357 0.5419987,-1.194466 0.3128973,-0.828517 0.346664,-0.875942 0.6236797,-0.875942 0.1060985,0 0.1929069,0.0071 0.1929069,0.01588 0,0.03377 -0.7282319,2.012539 -0.9178415,2.493983 -0.3712011,0.942531 -0.5422384,0.947093 -0.8985471,0.02397 -0.5557475,-1.439826 -0.6606516,-1.697707 -0.6906157,-1.697707 -0.038857,0 -0.2273479,0.463468 -0.5624004,1.382851 -0.3709964,1.018013 -0.5021983,1.220334 -0.6726921,1.037331 z"
     id="path3958" />
  <path
     style="fill:#000000;fill-opacity:1;stroke-width:0.109302"
     d="m 46.617491,36.381568 c -0.240466,-0.02377 -1.249726,-0.139424 -2.242802,-0.257022 -0.993076,-0.117597 -4.042614,-0.436683 -6.776751,-0.709081 -5.758004,-0.573661 -8.426063,-0.899034 -8.572675,-1.04545 -0.06558,-0.0655 -0.06558,-0.104006 0,-0.10453 0.05711,-4.37e-4 0.521919,-0.05219 1.032908,-0.114961 0.510989,-0.06277 3.535934,-0.15313 6.7221,-0.200794 5.162976,-0.07724 5.843597,-0.10765 6.257971,-0.279628 0.433789,-0.180036 1.010641,-0.716504 1.010641,-0.939888 0,-0.292764 -0.581728,-0.446391 -2.039016,-0.538476 -0.832323,-0.05259 -1.660871,-0.156555 -1.84122,-0.231025 l -0.327908,-0.135399 0.580988,-0.08006 c 0.657438,-0.0906 0.729602,-0.132739 0.637643,-0.372379 -0.151874,-0.395778 -0.561545,-0.428864 -5.809333,-0.469168 -6.271144,-0.04816 -9.269983,0.06486 -9.790738,0.368995 -0.967554,0.565082 -0.460013,0.688074 3.333876,0.807901 3.065346,0.09682 4.117268,0.201984 3.614999,0.361415 -0.336716,0.106882 -2.380689,0.271916 -4.973261,0.401552 -5.797647,0.289898 -9.158796,0.7071 -17.324437,2.150392 C 8.2629302,35.320518 6.1400863,35.387859 5.629968,35.136089 5.406118,35.025607 5.2852904,34.871574 5.2469654,34.647829 5.1964515,34.352923 5.1375891,34.311635 4.6449095,34.225524 4.3445721,34.173031 3.9026077,34.081886 3.6627662,34.022979 L 3.2266909,33.915877 3.5261381,33.677106 c 0.1646961,-0.131324 0.2994473,-0.294893 0.2994473,-0.363486 0,-0.243309 0.3240401,-0.442805 0.8416785,-0.518183 0.5387748,-0.07845 1.016463,-0.311817 1.016463,-0.496566 0,-0.22395 -0.5615702,-0.45041 -1.6143886,-0.651023 C 3.4644762,31.532593 2.7664831,31.334676 2.5182425,31.208033 1.6510093,30.765604 0.87441952,29.898047 0.87441952,29.371658 c 0,-0.11303 -0.12062275,-0.443769 -0.26805057,-0.734977 C 0.35675556,28.143632 0.35111699,28.097486 0.52439212,27.965788 0.62673268,27.888004 0.8826172,27.792698 1.0930244,27.753997 1.9322256,27.599641 2.2224746,27.08878 1.743248,26.609553 1.6036195,26.469925 1.5434818,26.308385 1.5838177,26.181299 c 0.04286,-0.13504 -0.047004,-0.331358 -0.2656862,-0.580423 -0.30994,-0.353002 -0.31870163,-0.38661 -0.1411515,-0.541422 0.5095617,-0.444306 1.4544921,-0.652092 4.8750318,-1.071996 1.4506427,-0.17808 2.8219801,-0.352631 3.0474164,-0.38789 l 0.4098841,-0.06411 v 1.266585 1.266586 h 5.9023317 5.902332 v -1.366281 -1.36628 h 4.809307 4.809308 v 1.36628 1.366281 h 5.902331 5.902332 V 24.806701 23.54477 l 0.355233,0.05993 c 0.195378,0.03296 1.142211,0.15788 2.104072,0.277597 4.210551,0.524062 7.238372,1.258301 7.448651,1.806279 0.03272,0.08526 -0.04359,0.286069 -0.169577,0.446235 -0.192933,0.245274 -0.229067,0.442149 -0.229067,1.248083 0,1.166438 -0.114704,1.346735 -1.028765,1.617059 -0.355414,0.105109 -0.697649,0.27266 -0.760522,0.372335 -0.171246,0.271482 0.177773,0.592092 0.860672,0.790616 0.31608,0.09189 0.688666,0.259359 0.827969,0.372159 0.280281,0.226958 0.289569,0.219394 -0.480453,0.391275 -0.457995,0.102231 -0.341321,0.41235 0.19723,0.524245 0.239109,0.04968 0.478047,0.133628 0.530971,0.186552 0.116591,0.116591 -0.394272,1.272172 -0.711849,1.610218 -0.123314,0.131262 -0.427885,0.272023 -0.676824,0.312803 -0.248939,0.04078 -0.543272,0.154337 -0.654073,0.252349 -0.124222,0.109885 -0.396598,0.178655 -0.710466,0.17938 -0.43784,10e-4 -0.513711,0.03418 -0.542639,0.237202 -0.02381,0.167102 0.06401,0.293703 0.300722,0.433533 0.391008,0.230974 0.489623,0.47057 0.396966,0.964473 -0.120871,0.644298 -0.380106,0.768884 -1.631636,0.784152 -0.610043,0.0074 -1.305913,-0.0059 -1.546378,-0.02968 z"
     id="path3960" />
  <path
     style="fill:#000000;fill-opacity:1;stroke-width:0.0398154"
     d="M 3.056038,42.258791 C 2.968464,42.171221 2.866215,41.963661 2.6826683,41.500883 2.4695197,40.963471 1.8799455,39.227693 1.8799455,39.13757 c 0,-0.145239 0.2796366,-0.125149 0.3795022,0.02726 0.035509,0.05419 0.1900069,0.424053 0.3433331,0.821916 0.3309475,0.858771 0.435338,1.077468 0.5223023,1.094224 0.084935,0.01636 0.2056702,-0.224405 0.5334471,-1.063802 0.1419121,-0.363419 0.2947713,-0.720299 0.3396868,-0.793065 0.1518894,-0.246071 0.3981389,-0.24616 0.547717,-1.98e-4 0.042908,0.07056 0.1883579,0.406947 0.3232218,0.747534 0.3064451,0.773899 0.4722901,1.116943 0.5399874,1.116943 0.072329,0 0.1748657,-0.212464 0.5370049,-1.112709 0.1713065,-0.425852 0.345487,-0.808297 0.3870677,-0.849878 0.071822,-0.07182 0.3330913,-0.112597 0.3855217,-0.06017 0.024104,0.0241 -0.3731865,1.142584 -0.7753137,2.182727 -0.2825897,0.730948 -0.409173,0.954862 -0.5398026,0.954862 -0.1385328,0 -0.2494831,-0.21125 -0.6656618,-1.267424 C 4.5423609,40.43941 4.3662016,39.992962 4.346495,39.94369 4.264609,39.738956 4.2147683,39.829638 3.8048813,40.929124 3.4855609,41.785674 3.4032801,41.9827 3.2852728,42.17336 3.182465,42.339462 3.1491318,42.351885 3.056038,42.25879 Z"
     id="path5024" />
  <path
     style="fill:#000000;fill-opacity:1;stroke-width:0.0398154"
     d="m 7.9773672,42.211891 c -0.079429,-0.01298 -0.090462,-0.0325 -0.071613,-0.126748 0.058394,-0.291974 0.8700055,-2.397116 1.0518419,-2.728249 0.1439855,-0.262206 0.2536736,-0.309547 0.7667548,-0.330931 0.5687381,-0.0237 0.8389121,0.03466 0.9858891,0.212966 0.166584,0.202095 1.123591,2.658891 1.123591,2.884443 0,0.0904 -0.126061,0.123653 -0.244643,0.06453 -0.115964,-0.05781 -0.239782,-0.276255 -0.380623,-0.671502 L 11.09861,41.20783 H 9.8814642 8.6643186 l -0.072837,0.209031 C 8.376373,42.034187 8.209782,42.249855 7.9773672,42.211891 Z m 2.8610758,-1.614225 c 0,-0.102523 -0.139951,-0.532755 -0.275809,-0.847884 -0.05437,-0.126124 -0.125538,-0.221015 -0.186622,-0.248847 -0.204354,-0.09311 -0.9575791,-0.02581 -1.0941201,0.09776 -0.082668,0.07481 -0.3147798,0.738848 -0.3147798,0.900535 0,0.0603 0.030566,0.125218 0.069677,0.147999 0.04134,0.02408 0.4218656,0.04108 0.9356655,0.04179 l 0.8659884,0.0012 z"
     id="path5026" />
  <path
     style="fill:#000000;fill-opacity:1;stroke-width:0.0398154"
     d="M 14.052398,42.24788 C 13.790622,42.22349 13.726119,42.20246 13.6357,42.112042 l -0.106978,-0.106978 -0.0311,-1.322952 -0.0311,-1.322952 0.167423,-0.170591 0.167422,-0.170591 h 1.290399 1.2904 l 0.150206,0.150206 c 0.149017,0.149017 0.237928,0.364033 0.238359,0.576428 2.21e-4,0.109039 -9.47e-4,0.109493 -0.278487,0.109493 H 16.213537 V 39.694842 39.53558 h -1.114835 -1.114835 v 1.094927 1.094928 h 1.114835 1.114835 v -0.35834 -0.35834 H 15.815386 15.41723 v -0.278709 -0.278708 h 0.691224 0.691224 l -0.0154,0.388201 c -0.03211,0.80925 -0.05792,1.031966 -0.134126,1.157276 -0.142859,0.234912 -0.224642,0.251583 -1.307151,0.266451 -0.539484,0.0074 -1.120253,4.74e-4 -1.290599,-0.01539 z"
     id="path5028" />
  <path
     style="fill:#000000;fill-opacity:1;stroke-width:0.0398154"
     d="m 18.841368,40.630507 v -1.69216 h 1.552804 1.552808 v 0.298617 0.298616 h -1.254191 -1.254191 v 0.398155 0.398156 h 1.0153 1.015295 v 0.298616 0.298617 h -1.015295 -1.0153 v 0.398156 0.398155 h 1.274099 1.274098 v 0.298616 0.298617 h -1.572716 -1.572711 z"
     id="path5030" />
  <path
     style="fill:#000000;fill-opacity:1;stroke-width:0.0398154"
     d="m 23.897942,40.650415 v -1.672252 l 0.189121,4.37e-4 c 0.47072,0.0011 0.381824,-0.07394 1.531852,1.29291 l 1.046207,1.243455 0.01049,-1.28831 0.01049,-1.288309 h 0.298071 0.298071 v 1.697137 1.697138 l -0.124424,-0.02488 c -0.06843,-0.01369 -0.216274,-0.02488 -0.328538,-0.02488 h -0.204119 l -0.736352,-0.882292 c -0.90553,-1.085003 -1.346646,-1.586271 -1.395914,-1.586271 -0.02273,0 -0.03756,0.494887 -0.03756,1.254189 v 1.25419 h -0.27871 -0.278706 z"
     id="path5032" />
  <path
     style="fill:#000000;fill-opacity:1;stroke-width:0.0398154"
     d="m 29.153593,40.630507 v -1.69216 h 0.298617 0.298617 v 1.69216 1.692161 H 29.45221 29.153593 Z"
     id="path5034" />
  <path
     style="fill:#000000;fill-opacity:1;stroke-width:0.0398154"
     d="m 31.701789,40.630507 v -1.69216 l 0.149306,0.0035 c 0.472564,0.01104 0.492139,0.02171 0.870492,0.474298 0.800449,0.957517 1.735966,2.030593 1.770287,2.030593 0.02178,0 0.03682,-0.512723 0.03682,-1.254189 v -1.254192 h 0.298617 0.298617 v 1.688396 1.688395 l -0.32848,-0.02149 c -0.180663,-0.01182 -0.330093,-0.02356 -0.332071,-0.0261 -0.0018,-0.0025 -0.358791,-0.425652 -0.792917,-0.940268 -0.977109,-1.158269 -1.290617,-1.512991 -1.3372,-1.512991 -0.02102,0 -0.03625,0.527197 -0.03625,1.25419 v 1.254189 h -0.298617 -0.298614 z"
     id="path5036" />
  <path
     style="fill:#000000;fill-opacity:1;stroke-width:0.0398154"
     d="m 37.498678,42.244467 c -0.06364,-0.02073 -0.175625,-0.09575 -0.248847,-0.166723 l -0.133129,-0.129037 v -1.31793 -1.317929 l 0.152592,-0.149005 0.152596,-0.149005 1.317424,0.01153 1.317424,0.01152 0.101693,0.09558 c 0.109809,0.103212 0.205382,0.332923 0.237708,0.571327 l 0.02025,0.149308 H 40.120274 39.82416 v -0.159262 -0.159262 h -1.094925 -1.094927 v 1.094927 1.094927 h 1.094927 1.094925 v -0.358339 -0.35834 h -0.378247 -0.378246 v -0.278709 -0.278709 h 0.662664 0.662665 l -0.02065,0.720448 c -0.03155,1.100757 0.01217,1.071107 -1.613364,1.094146 -0.660993,0.0094 -1.19347,2.99e-4 -1.260295,-0.02147 z"
     id="path5038" />
  <path
     style="fill:#000000;fill-opacity:1;stroke-width:0.0398154"
     d="m 42.372352,40.630507 v -1.69216 h 1.572715 1.572711 v 0.298617 0.298616 H 44.24368 42.969586 v 0.398155 0.398156 h 1.015296 1.015295 v 0.298616 0.298617 h -1.015295 -1.015296 v 0.398156 0.398155 h 1.274094 1.274098 v 0.298616 0.298617 h -1.572711 -1.572715 z"
     id="path5040" />
  <path
     style="fill:#000000;fill-opacity:1;stroke-width:0.0398154"
     d="m 47.389111,40.625096 v -1.697573 l 0.184725,0.02532 c 0.101602,0.01393 0.250551,0.02532 0.331004,0.02532 0.143267,0 0.167903,0.02593 1.198862,1.261771 l 1.052589,1.26177 0.01049,-1.281678 0.01049,-1.281679 h 0.298064 0.298063 v 1.692161 1.692161 H 50.458411 50.14342 l -0.51024,-0.607187 c -1.017521,-1.210854 -1.617229,-1.901193 -1.651594,-1.901193 -0.01949,0 -0.03508,0.557262 -0.03508,1.25419 v 1.25419 h -0.27871 -0.278706 z"
     id="path5042" />
  <path
     style="fill:#000000;stroke-width:0.124216"
     d="m 7.9497952,42.059429 c 0,-0.143027 0.9167032,-2.413939 1.0729764,-2.658042 0.1611254,-0.251681 0.2665228,-0.281094 0.8902109,-0.248431 0.6767495,0.03544 0.7170375,0.05666 0.9284755,0.489088 0.418639,0.856182 0.956849,2.467028 0.824274,2.467028 -0.07267,0 -0.225804,-0.22302 -0.340288,-0.495599 l -0.208152,-0.495599 -1.2085773,-0.0013 -1.2085771,-0.0013 -0.2534802,0.496862 c -0.1394141,0.273275 -0.3082411,0.496863 -0.3751712,0.496863 -0.06693,0 -0.121691,-0.02234 -0.121691,-0.04964 z M 10.930968,40.70272 c 0,-0.02199 -0.0883,-0.29912 -0.196217,-0.615847 -0.217432,-0.638127 -0.435832,-0.766348 -1.0947705,-0.642731 -0.3368688,0.0632 -0.4615011,0.164762 -0.5644,0.459938 -0.2781966,0.798035 -0.2364964,0.838621 0.8616635,0.838621 0.546548,0 0.993724,-0.01799 0.993724,-0.03998 z"
     id="path6971" />
  <path
     style="fill:#000000;stroke-width:0.0443231"
     d="m 37.430824,42.190192 c -0.04875,-0.02809 -0.133523,-0.09171 -0.188373,-0.141387 -0.09921,-0.08985 -0.09973,-0.09726 -0.09973,-1.423366 l 2e-6,-1.333046 0.152761,-0.121889 0.152761,-0.121888 h 1.302173 c 1.297914,0 1.302482,3.3e-4 1.397046,0.100989 0.106562,0.113429 0.23084,0.431926 0.23084,0.591591 0,0.09907 -0.01557,0.105235 -0.265939,0.105235 H 39.846431 V 39.6913 39.536169 h -1.108077 -1.108076 v 1.108077 1.108076 h 1.108076 1.108077 V 41.375576 40.99883 h -0.376746 -0.376746 v -0.265938 -0.265938 h 0.647292 0.647292 l -0.02998,0.653765 c -0.01649,0.359571 -0.05066,0.720518 -0.07594,0.802104 -0.08282,0.267264 -0.204268,0.290972 -1.565406,0.305587 -0.843802,0.0091 -1.222865,-0.0022 -1.285369,-0.03822 z"
     id="path6973" />
</svg>
