<?xml version="1.0" encoding="UTF-8" standalone="no"?>
<svg
   id="Logo"
   viewBox="0 0 193.28 36.77"
   version="1.1"
   sodipodi:docname="wageningen-logo.svg"
   inkscape:version="1.2 (dc2aeda, 2022-05-15)"
   xmlns:inkscape="http://www.inkscape.org/namespaces/inkscape"
   xmlns:sodipodi="http://sodipodi.sourceforge.net/DTD/sodipodi-0.dtd"
   xmlns="http://www.w3.org/2000/svg"
   xmlns:svg="http://www.w3.org/2000/svg">
  <sodipodi:namedview
     id="namedview71"
     pagecolor="#ffffff"
     bordercolor="#000000"
     borderopacity="0.25"
     inkscape:showpageshadow="2"
     inkscape:pageopacity="0.0"
     inkscape:pagecheckerboard="0"
     inkscape:deskcolor="#d1d1d1"
     showgrid="false"
     inkscape:zoom="9.1489266"
     inkscape:cx="172.20599"
     inkscape:cy="19.619788"
     inkscape:window-width="1512"
     inkscape:window-height="945"
     inkscape:window-x="0"
     inkscape:window-y="37"
     inkscape:window-maximized="0"
     inkscape:current-layer="Logo" />
  <defs
     id="defs4">
    <style
       id="style2">.cls-1{fill:#005172;}.cls-2{fill:#008a00;}</style>
  </defs>
  <path
     class="cls-1"
     d="M83.93,22l-3.43,9.4H79.15L76.7,24.76C75.91,27,75,29.25,74.26,31.43H72.91L69.49,22h1.83l2.27,6.2L75.87,22h1.68l2.27,6.2L82.1,22Z"
     transform="translate(-11.12 -18.51)"
     id="path6" />
  <path
     class="cls-1"
     d="M111.14,24.58h-1.73v-.74a.09.09,0,0,0-.1-.09h-5.76a.09.09,0,0,0-.09.09v5.78a.09.09,0,0,0,.09.09h5.76a.09.09,0,0,0,.1-.09V27.84h-2.13V26.12h3.86v3.5a1.82,1.82,0,0,1-1.83,1.81h-5.76a1.81,1.81,0,0,1-1.81-1.81V23.84A1.81,1.81,0,0,1,103.55,22h5.76a1.82,1.82,0,0,1,1.83,1.81Z"
     transform="translate(-11.12 -18.51)"
     id="path8" />
  <path
     class="cls-1"
     d="M125.3,23.75h-6.91v2.12H124v1.72h-5.57v2.12h6.91v1.72h-8.65V22h8.65Z"
     transform="translate(-11.12 -18.51)"
     id="path10" />
  <path
     class="cls-1"
     d="M138.17,22h1.74v9.4H138l-5.8-6.89v6.89H130.5V22h1.88l5.79,6.9Z"
     transform="translate(-11.12 -18.51)"
     id="path12" />
  <path
     class="cls-1"
     d="M145,22h1.72v9.4H145Z"
     transform="translate(-11.12 -18.51)"
     id="path14" />
  <path
     class="cls-1"
     d="M159.69,22h1.73v9.4h-1.88l-5.8-6.89v6.89H152V22h1.88l5.79,6.9Z"
     transform="translate(-11.12 -18.51)"
     id="path16" />
  <path
     class="cls-1"
     d="M176,24.58h-1.74v-.74a.09.09,0,0,0-.09-.09h-5.76a.09.09,0,0,0-.09.09v5.78a.09.09,0,0,0,.09.09h5.76a.09.09,0,0,0,.09-.09V27.84h-2.13V26.12H176v3.5a1.82,1.82,0,0,1-1.83,1.81h-5.76a1.81,1.81,0,0,1-1.82-1.81V23.84A1.81,1.81,0,0,1,168.37,22h5.76A1.82,1.82,0,0,1,176,23.84Z"
     transform="translate(-11.12 -18.51)"
     id="path18" />
  <path
     class="cls-1"
     d="M190,23.75H183v2.12h5.56v1.72H183v2.12H190v1.72H181.3V22H190Z"
     transform="translate(-11.12 -18.51)"
     id="path20" />
  <path
     class="cls-1"
     d="M202.65,22h1.74v9.4h-1.88l-5.8-6.89v6.89H195V22h1.88l5.79,6.9Z"
     transform="translate(-11.12 -18.51)"
     id="path22" />
  <path
     class="cls-1"
     d="M95.32,23.84C95,22.73,94.51,22,93.51,22H90.67c-1,0-1.44.7-1.81,1.81l-2.73,7.59h1.78l1.15-3.16h6.09l1.15,3.16h1.75Zm-5.68,2.71.94-2.71c0-.06,0-.09.09-.09h2.86s.06,0,.09.09l.94,2.71Z"
     transform="translate(-11.12 -18.51)"
     id="path24" />
  <path
     class="cls-2"
     d="M74.88,38.85h.83v4.56a1,1,0,0,1-1,1H71.15a1,1,0,0,1-1-1V38.85H71v4.56a.18.18,0,0,0,.17.17h3.56a.18.18,0,0,0,.17-.17Z"
     transform="translate(-11.12 -18.51)"
     id="path26" />
  <path
     class="cls-2"
     d="M82.5,38.85h.84v5.56h-1L78.61,40v4.45h-.84V38.85h1L82.5,43.3Z"
     transform="translate(-11.12 -18.51)"
     id="path28" />
  <path
     class="cls-2"
     d="M85.42,38.85h.84v5.56h-.84Z"
     transform="translate(-11.12 -18.51)"
     id="path30" />
  <path
     class="cls-2"
     d="M93.49,38.85h1l-3.2,5.56h-.84L87.2,38.85h1l2.67,4.62Z"
     transform="translate(-11.12 -18.51)"
     id="path32" />
  <path
     class="cls-2"
     d="M100.32,39.68H96.05v1.53h3.44v.84H96.05v1.53h4.27v.83h-5.1V38.85h5.1Z"
     transform="translate(-11.12 -18.51)"
     id="path34" />
  <path
     class="cls-2"
     d="M107.89,41.42a1,1,0,0,1-1,1h-.57l1.57,1.87v.11h-1l-1.67-2h-1.9l-.17,0v2h-.83V38.85h4.56a1,1,0,0,1,1,1Zm-4.73-1.73v1.9h3.73a.17.17,0,0,0,.17-.17V39.86a.18.18,0,0,0-.17-.17Z"
     transform="translate(-11.12 -18.51)"
     id="path36" />
  <path
     class="cls-2"
     d="M153.24,41.42a1,1,0,0,1-1,1h-.56l1.56,1.87v.11h-1l-1.66-2h-1.91l-.17,0v2h-.83V38.85h4.56a1,1,0,0,1,1,1Zm-4.73-1.73v1.9h3.73a.17.17,0,0,0,.17-.17V39.86a.18.18,0,0,0-.17-.17Z"
     transform="translate(-11.12 -18.51)"
     id="path38" />
  <path
     class="cls-2"
     d="M189.63,41.42a1,1,0,0,1-1,1h-.56l1.57,1.87v.11h-1l-1.67-2h-1.9l-.17,0v2h-.84V38.85h4.56a1,1,0,0,1,1,1Zm-4.73-1.73v1.9h3.72a.17.17,0,0,0,.17-.17V39.86a.18.18,0,0,0-.17-.17Z"
     transform="translate(-11.12 -18.51)"
     id="path40" />
  <path
     class="cls-2"
     d="M115.45,40.18h-.84v-.33a.17.17,0,0,0-.17-.17h-3.55a.18.18,0,0,0-.17.17V41a.17.17,0,0,0,.17.17h3.55a1,1,0,0,1,1,1v1.19a1,1,0,0,1-1,1h-3.55a1,1,0,0,1-1-1v-.33h.84v.33a.18.18,0,0,0,.17.17h3.55a.17.17,0,0,0,.17-.17V42.22a.17.17,0,0,0-.17-.17h-3.55a1,1,0,0,1-1-1V39.85a1,1,0,0,1,1-1h3.55a1,1,0,0,1,1,1Z"
     transform="translate(-11.12 -18.51)"
     id="path42" />
  <path
     class="cls-2"
     d="M117.49,38.85h.84v5.56h-.84Z"
     transform="translate(-11.12 -18.51)"
     id="path44" />
  <path
     class="cls-2"
     d="M125.26,38.85v.83H122.9v4.73h-.83V39.68H119.7v-.83Z"
     transform="translate(-11.12 -18.51)"
     id="path46" />
  <path
     class="cls-2"
     d="M131.81,38.85l-2.56,3.48v2.08h-.84V42.33l-2.56-3.48h1l2,2.53,2-2.53Z"
     transform="translate(-11.12 -18.51)"
     id="path48" />
  <path
     class="cls-2"
     d="M160.39,39.68h-4.27v1.53h3.44v.84h-3.44v1.53h4.27v.83h-5.1V38.85h5.1Z"
     transform="translate(-11.12 -18.51)"
     id="path50" />
  <path
     class="cls-2"
     d="M167.65,40.18h-.83v-.33a.18.18,0,0,0-.17-.17h-3.56a.18.18,0,0,0-.17.17V41a.17.17,0,0,0,.17.17h3.56a1,1,0,0,1,1,1v1.19a1,1,0,0,1-1,1h-3.56a1,1,0,0,1-1-1v-.33h.83v.33a.18.18,0,0,0,.17.17h3.56a.18.18,0,0,0,.17-.17V42.22a.18.18,0,0,0-.17-.17h-3.56a1,1,0,0,1-1-1V39.85a1,1,0,0,1,1-1h3.56a1,1,0,0,1,1,1Z"
     transform="translate(-11.12 -18.51)"
     id="path52" />
  <path
     class="cls-2"
     d="M174.81,39.68h-4.27v1.53H174v.84h-3.43v1.53h4.27v.83h-5.1V38.85h5.1Z"
     transform="translate(-11.12 -18.51)"
     id="path54" />
  <path
     class="cls-2"
     d="M180.15,38.85c.56,0,.88.42,1.09,1l1.62,4.56H182l-.73-1.95h-3.86l-.71,1.95h-.84l1.68-4.56c.22-.62.45-1,1-1Zm.86,2.78-.69-1.78c0-.1-.08-.17-.17-.17h-1.62c-.1,0-.12,0-.17.17l-.67,1.78Z"
     transform="translate(-11.12 -18.51)"
     id="path56" />
  <path
     class="cls-2"
     d="M192.52,39.68a.17.17,0,0,0-.16.17v3.56a.17.17,0,0,0,.16.17h4.55v.83h-4.55a1,1,0,0,1-1-1V39.85a1,1,0,0,1,1-1h4.55v.83Z"
     transform="translate(-11.12 -18.51)"
     id="path58" />
  <path
     class="cls-2"
     d="M204.4,38.85v5.56h-.83V42.05h-4v2.36h-.84V38.85h.84v2.36h4V38.85Z"
     transform="translate(-11.12 -18.51)"
     id="path60" />
  <path
     class="cls-2"
     d="M142.6,43.59l-1-.61v-1.6h-.84v1.07l-3.06-1.92h0a.17.17,0,0,1-.09-.15v-.51a.18.18,0,0,1,.17-.17h2.06a.18.18,0,0,1,.17.17v.37h.83v-.54a1,1,0,0,0-1-.84h-2.06a1,1,0,0,0-1,1v.62c0,.29.16.39.43.55h-.15c-.56,0-1,.16-1,.72v1.66a1,1,0,0,0,1,1h3.55a1,1,0,0,0,.95-.66h0l1,.66Zm-1.82-.18a.16.16,0,0,1-.17.17h-3.55a.17.17,0,0,1-.17-.17V41.75a.17.17,0,0,1,0-.07.21.21,0,0,1,.2-.1h1l2.67,1.69Z"
     transform="translate(-11.12 -18.51)"
     id="path62" />
  <path
     class="cls-1"
     d="M50.3,50.54"
     transform="translate(-11.12 -18.51)"
     id="path64" />
  <path
     class="cls-1"
     d="M64.1,44.49c.54-.5-1.2-1.09-1.2-1.09s-1.86-.85-9.26-1.46v2.55H42.2V41.57c-2.28-.06-6.79,0-9.93,0v2.92H20.87V41.94a70.7,70.7,0,0,0-8.23,1l-.61.5c-.62.41,0,.57.43.77.16.08.17.13.11.3s-.42.21-.35.44c.15.48.85,0,.8.65s-1.71.32-1.88,1c-.13.54.61,0,.6,1.09s.76,2.1,2.91,2.63c.51.13,2.91.09,1.68.8a3.66,3.66,0,0,1-.81.09c-.24,0-.78,0-.93.21s.26.33.19.64c-.28,0-.88,0-.62.5a1,1,0,0,0,.83.36,3.81,3.81,0,0,1,1.57.1c-.75.14-1.42.92,1.39.84.06.43.82.39,1.08.33,17.52-3.88,25.1-2.23,25.15-3.3-.25-.53-2.72-.48-3.13-.5-1.6-.07-5,.1-4.81-.31.09-1,17.85-.73,15.77-.13-.1,0-1.34.24-1.5.32-1,.51,2.72.62,3.11.65s1.54,0,1.34.48c-.06.15-1.38,0-1.32.2s.79.08.86.2c.54.84-6.53.43-10.18.5-1.07,0-3.17.15-4.26.29-1.85.25-.27.68,2.6.95,1.54.14,9.46.78,16.18,1.66,2,.37,2.62-.63,2.17-.9-.26-.15.85-.71-.39-1.24-.78-.33-.14-.47-.09-.45s1.72.41,1.12-.12c-.38-.35.26-.15.38-.16,1.49-.11,1.14-.67,1.24-.58-.45-.44.75-.75.48-1.72-.09-.29-1.8-.23-.67-.46.12,0,1.69,0,.24-.84a3.76,3.76,0,0,0-1.14-.32c-1.07-.24-.27-.78.27-.69s1.31-.33,1.2-1C63.51,45.89,63.22,44.66,64.1,44.49Z"
     transform="translate(-11.12 -18.51)"
     id="path66" />
  <polygon
     class="cls-2"
     points="11.44 0 11.44 25.98 21.15 25.98 21.15 9.79 31.07 9.79 31.07 25.98 40.78 25.98 40.78 0 11.44 0"
     id="polygon68" />
  <path
     style="fill:#2f2e41;stroke-width:0.272121;fill-opacity:1"
     d="m 44.491828,36.195507 c -1.496667,-0.195664 -5.530331,-0.62016 -8.963699,-0.943324 -3.433365,-0.323165 -6.415199,-0.684228 -6.626295,-0.802363 -0.609919,-0.341329 2.827768,-0.566665 8.677295,-0.568787 4.989324,-0.0018 5.374308,-0.03797 5.977938,-0.561497 0.857751,-0.743923 0.368708,-1.061922 -1.650391,-1.073165 -0.823167,-0.0046 -1.680349,-0.127038 -1.904849,-0.272121 -0.318074,-0.205557 -0.242988,-0.264708 0.340152,-0.267955 0.902093,-0.005 0.989172,-0.420391 0.13606,-0.649016 -0.801326,-0.214747 -13.438317,-0.158172 -14.468008,0.06477 -0.436653,0.09454 -0.844835,0.324963 -0.907071,0.512046 -0.08613,0.258908 0.688444,0.34663 3.243007,0.367277 3.827443,0.03093 5.537213,0.324548 3.492222,0.59971 -0.6735,0.09062 -2.93891,0.236154 -5.034244,0.323405 -4.543715,0.189203 -10.729523,0.951903 -15.369518,1.895034 -3.7783244,0.767988 -6.33316,0.7293 -6.1993302,-0.09388 0.053044,-0.326271 -0.1896718,-0.459962 -0.9491867,-0.522822 -0.5612502,-0.04645 -1.0204548,-0.19952 -1.0204548,-0.340152 0,-0.140632 0.1224546,-0.255695 0.2721213,-0.255695 0.1496667,0 0.2721212,-0.175923 0.2721212,-0.390941 0,-0.239784 0.3338458,-0.42391 0.8634376,-0.476212 C 5.8114646,32.627405 5.9646017,32.066656 4.9125972,31.862976 4.4556694,31.77451 3.7115219,31.630527 3.2589366,31.543014 2.1557778,31.329706 0.81636382,30.165159 0.81636382,29.419332 c 0,-0.330929 -0.1520446,-0.753734 -0.33787688,-0.939566 -0.26908831,-0.269088 -0.25523797,-0.390123 0.0680303,-0.5945 0.22324895,-0.141143 0.62020276,-0.258498 0.88211946,-0.26079 0.2934091,-0.0026 0.4762122,-0.213085 0.4762122,-0.548409 0,-0.299334 -0.1296814,-0.544243 -0.288181,-0.544243 -0.1584996,0 -0.2010189,-0.141031 -0.094487,-0.313403 C 1.6287122,26.046049 1.5031769,25.74949 1.2432132,25.5594 0.80352381,25.237891 0.81486068,25.18551 1.4057308,24.808498 1.7550791,24.585591 3.204228,24.267317 4.6260617,24.10122 6.0478953,23.935124 7.7316457,23.733058 8.3677292,23.652185 l 1.1565154,-0.147042 v 1.241219 1.24122 h 5.8506074 5.850607 v -1.360607 -1.360606 h 4.898183 4.898183 v 1.360606 1.360607 h 5.850608 5.850607 v -1.233919 -1.233918 l 1.428637,0.16936 c 6.434307,0.762768 9.580971,1.684713 8.34892,2.446162 -0.160013,0.09889 -0.258431,0.629965 -0.218704,1.180159 0.09157,1.268306 -0.09372,1.554856 -1.140817,1.764277 -1.046592,0.209318 -0.929729,0.749816 0.226928,1.049535 1.012255,0.262302 1.419392,0.756527 0.62322,0.756527 -0.308167,0 -0.560303,0.122454 -0.560303,0.272121 0,0.149667 0.244909,0.272121 0.544242,0.272121 0.656313,0 0.673974,0.200572 0.116131,1.318798 -0.304036,0.609454 -0.619506,0.858172 -1.088485,0.858172 -0.363206,0 -0.660373,0.130707 -0.660373,0.290459 0,0.16237 -0.229905,0.21749 -0.521341,0.124992 -0.715072,-0.226955 -0.979539,0.306692 -0.325471,0.656739 0.416966,0.223154 0.486776,0.442217 0.329544,1.034108 -0.17724,0.667206 -0.334056,0.755828 -1.405811,0.79448 -0.663472,0.02393 -2.430862,-0.116584 -3.927529,-0.312248 z"
     id="path1655" />
  <path
     style="fill:#2f2e41;fill-opacity:1;stroke-width:0.272121"
     d=""
     id="path1726" />
  <path
     style="fill:#2f2e41;fill-opacity:1;stroke-width:0.272121"
     d="m 75.377593,12.486034 c 0,-0.54386 2.826238,-7.9331699 3.186517,-8.3312737 0.63088,-0.6971146 4.156623,-0.6931748 4.788781,0.00535 0.384068,0.4243902 3.181674,7.7033097 3.181674,8.2782017 0,0.11843 -0.290797,0.215326 -0.646216,0.215326 -0.532933,0 -0.736242,-0.250441 -1.159774,-1.428636 L 84.215016,9.7963658 h -3.224497 -3.224497 l -0.532929,1.4286372 c -0.442159,1.185307 -0.645561,1.428636 -1.194215,1.428636 -0.363707,0 -0.661285,-0.07542 -0.661285,-0.167605 z m 8.0386,-4.9196005 C 83.314972,7.1631375 83.060438,6.4221905 82.850561,5.919884 82.474092,5.0188678 82.448191,5.0076993 80.922351,5.088452 79.424437,5.167727 79.365423,5.2002958 79.048264,6.1227287 78.217868,8.5378768 78.007916,8.2996988 80.967241,8.2996988 h 2.63299 z"
     id="path1728" />
  <path
     style="fill:#2f2e41;fill-opacity:1;stroke-width:0.272121"
     d="M 60.340834,8.5021767 C 59.479118,6.07098 58.775004,3.9899782 58.776137,3.8777281 c 0.0011,-0.11225 0.298067,-0.2040909 0.659855,-0.2040909 0.525076,0 0.744474,0.2333445 1.087395,1.1565154 0.236279,0.6360835 0.714912,1.9298688 1.063629,2.8750785 0.348717,0.9452098 0.747185,1.735343 0.885484,1.7558517 0.1383,0.02051 0.726674,-1.2732767 1.307499,-2.8750786 0.994313,-2.7421211 1.0999,-2.912367 1.806265,-2.912367 0.704586,0 0.814148,0.1739064 1.801228,2.8590609 0.578054,1.5724838 1.170079,2.8682666 1.31561,2.8795174 0.145531,0.011252 0.740939,-1.2753263 1.32313,-2.8590609 0.994908,-2.7064509 1.103655,-2.8795174 1.809367,-2.8795174 h 0.75084 l -1.63542,4.490001 c -1.446471,3.9712478 -1.705424,4.4900008 -2.241328,4.4900008 -0.526487,0 -0.762314,-0.427929 -1.799155,-3.2647334 -0.656287,-1.7956034 -1.255529,-3.2650583 -1.331649,-3.2654553 -0.07612,-3.97e-4 -0.68734,1.5299605 -1.358266,3.4007943 -1.705248,4.7549714 -1.845239,4.7180934 -3.879787,-1.0220679 z"
     id="path1730" />
  <path
     style="fill:#2f2e41;fill-opacity:1;stroke-width:0.109302"
     d="m 91.595445,12.613767 c -0.834352,-0.48908 -0.816052,-0.396394 -0.851309,-4.3116891 -0.03147,-3.4945882 -0.03097,-3.503425 0.218605,-3.8701866 0.13758,-0.2021804 0.388919,-0.4704956 0.558532,-0.5962558 0.294644,-0.2184653 0.457077,-0.2300768 3.644986,-0.2605609 3.164959,-0.030265 3.359947,-0.020508 3.790455,0.1896576 0.621173,0.3032449 0.92872,0.7952457 1.01538,1.6243615 l 0.07078,0.6771917 H 99.207535 98.372196 V 5.6273466 5.1884079 l -3.033142,0.029055 -3.033143,0.029055 -0.02908,2.9784915 -0.02908,2.9784916 h 3.062225 3.062225 V 10.219778 9.2360562 H 97.279172 96.186147 V 8.4709391 7.705822 h 1.92341 1.923413 l -0.03795,1.9401184 c -0.03543,1.8113916 -0.05499,1.9675396 -0.294888,2.3534006 -0.505598,0.813227 -0.667108,0.844025 -4.411379,0.841185 -3.138881,-0.0024 -3.330613,-0.01415 -3.693312,-0.226759 z"
     id="path1732" />
  <path
     style="fill:#2f2e41;fill-opacity:1;stroke-width:0.109302"
     d="M 105.58616,8.197683 V 3.5523293 h 4.26279 4.2628 v 0.8197683 0.8197683 h -3.44303 -3.44303 v 1.0930244 1.0930244 h 2.78722 2.78721 V 8.197683 9.0174513 h -2.78721 -2.78722 V 10.110476 11.2035 h 3.49768 3.49768 v 0.819768 0.819769 h -4.31745 -4.31744 z"
     id="path1734" />
  <path
     style="fill:#2f2e41;fill-opacity:1;stroke-width:0.109302"
     d="M 119.46757,8.197683 V 3.5523293 l 0.90174,0.00697 0.90175,0.00697 2.40465,2.8892951 c 1.32256,1.5891122 2.63616,3.1476358 2.91911,3.4633856 l 0.51445,0.57409 0.005,-3.4703521 0.005,-3.4703525 h 0.81977 0.81976 v 4.6453537 4.6453539 h -0.91601 -0.91602 L 124.044,9.4053122 c -1.58524,-1.8907484 -2.91913,-3.4401105 -2.96422,-3.4430268 -0.0451,-0.00292 -0.082,1.5440597 -0.082,3.4377245 v 3.4430271 h -0.76512 -0.76511 z"
     id="path1736" />
  <path
     style="fill:#2f2e41;fill-opacity:1;stroke-width:0.109302"
     d="M 133.89549,8.197683 V 3.5523293 h 0.81977 0.81977 v 4.6453537 4.645354 h -0.81977 -0.81977 z"
     id="path1738" />
  <path
     style="fill:#2f2e41;fill-opacity:1;stroke-width:0.109302"
     d="M 140.89085,8.197683 V 3.5523293 h 0.91702 0.91702 l 2.86738,3.4157013 c 1.57706,1.8786357 2.91051,3.4320964 2.96322,3.4521354 0.0537,0.0204 0.0958,-1.4829051 0.0958,-3.4157013 V 3.5523293 h 0.81977 0.81977 v 4.6453537 4.645354 h -0.91299 -0.91299 l -2.87039,-3.4157015 c -1.57871,-1.8786357 -2.91397,-3.4320967 -2.96725,-3.4521354 -0.055,-0.02069 -0.0969,1.4553266 -0.0969,3.4157013 v 3.4521356 h -0.81977 -0.81976 z"
     id="path1740" />
  <path
     style="fill:#2f2e41;fill-opacity:1;stroke-width:0.109302"
     d="m 156.41068,12.597106 c -0.19874,-0.135262 -0.46424,-0.384799 -0.59,-0.554527 -0.22094,-0.298177 -0.22866,-0.427999 -0.22866,-3.844896 0,-3.4011572 0.009,-3.547834 0.22536,-3.8381422 0.12395,-0.1660137 0.36119,-0.4032546 0.5272,-0.5272017 0.29023,-0.2166867 0.43718,-0.2253586 3.81884,-0.2253586 3.50981,0 3.51771,5.207e-4 3.87469,0.2551354 0.48917,0.3488986 0.78997,0.9784385 0.78997,1.6533029 v 0.5508666 h -0.81977 -0.81977 V 5.6290757 5.1918659 h -3.00581 -3.00582 V 8.197683 11.2035 h 3.00582 3.00581 V 10.219778 9.2360562 h -1.03837 -1.03837 V 8.4709391 7.705822 h 1.8649 1.8649 l -0.0341,2.0036481 -0.0341,2.0036479 -0.31499,0.412603 c -0.53245,0.697451 -0.65334,0.717316 -4.36534,0.717316 -3.26414,0 -3.32727,-0.0042 -3.68242,-0.245931 z"
     id="path1742" />
  <path
     style="fill:#2f2e41;fill-opacity:1;stroke-width:0.109302"
     d="M 170.1839,8.197683 V 3.5523293 h 4.31745 4.31744 v 0.8197683 0.8197683 h -3.49768 -3.49767 v 1.0930244 1.0930244 h 2.78721 2.78721 V 8.197683 9.0174513 h -2.78721 -2.78721 V 10.110476 11.2035 h 3.49767 3.49768 v 0.819768 0.819769 h -4.31744 -4.31745 z"
     id="path1744" />
  <path
     style="fill:#121119;fill-opacity:1;stroke-width:0.109302"
     d="M 183.95601,8.197683 V 3.5523293 l 0.90174,0.00522 0.90175,0.00522 2.89651,3.465131 2.89652,3.4651307 0.0289,-3.4703522 0.0289,-3.4703525 h 0.81823 0.81823 V 8.19768 12.843034 h -0.90512 -0.90513 l -2.89313,-3.442393 c -1.59123,-1.8933159 -2.93002,-3.4426779 -2.97511,-3.4430268 -0.0451,-3.488e-4 -0.082,1.5487279 -0.082,3.4423927 v 3.4430271 h -0.76512 -0.76511 z"
     id="path1746" />
  <path
     style="fill:#121119;fill-opacity:1;stroke-width:0.109302"
     d="M 170.1839,8.197683 V 3.5523293 h 4.31745 4.31744 v 0.8197683 0.8197683 h -3.49768 -3.49767 v 1.0930244 1.0930244 h 2.78721 2.78721 V 8.197683 9.0174513 h -2.78721 -2.78721 V 10.110476 11.2035 h 3.49767 3.49768 v 0.819768 0.819769 h -4.31744 -4.31745 z"
     id="path3942" />
  <path
     style="fill:#121119;fill-opacity:1;stroke-width:0.109302"
     d="m 157.65102,12.765445 c -0.98433,-0.03898 -1.00958,-0.04686 -1.47558,-0.460399 l -0.47411,-0.420739 V 8.2120007 4.5396947 l 0.4117,-0.4117059 0.41171,-0.4117058 h 3.59714 c 3.45973,0 3.60865,0.00859 3.89824,0.2248011 0.40009,0.2987061 0.67086,0.8501706 0.76175,1.5513635 l 0.0744,0.5738378 h -0.83385 -0.83385 V 5.6290757 5.1918659 h -3.00581 -3.00582 V 8.197683 11.2035 h 3.00582 3.00581 V 10.219778 9.2360562 h -1.03837 -1.03837 V 8.4709391 7.705822 h 1.85129 1.85128 l -0.0617,1.9947696 c -0.0592,1.9105714 -0.0733,2.0102534 -0.33547,2.3616004 -0.15053,0.201756 -0.42707,0.429293 -0.61453,0.505637 -0.35994,0.146595 -4.26899,0.27217 -6.1516,0.197616 z"
     id="path3944" />
  <path
     style="fill:#121119;fill-opacity:1;stroke-width:0.109302"
     d="M 140.89085,8.197683 V 3.5523293 h 0.91996 c 0.50598,0 0.93636,0.043427 0.95639,0.096505 0.0729,0.1931506 5.69785,6.7895487 5.78963,6.7895487 0.052,0 0.0945,-1.5493621 0.0945,-3.4430269 V 3.5523293 h 0.81977 0.81977 v 4.6497741 4.6497746 l -0.89824,-0.03175 -0.89823,-0.03175 -1.51797,-1.803491 c -3.12717,-3.7153901 -4.26365,-5.027912 -4.35353,-5.027912 -0.0509,0 -0.0925,1.5493621 -0.0925,3.4430269 v 3.4430271 h -0.81977 -0.81976 z"
     id="path3946" />
  <path
     style="fill:#121119;fill-opacity:1;stroke-width:0.109302"
     d="M 133.89549,8.197683 V 3.5523293 h 0.81977 0.81977 v 4.6453537 4.645354 h -0.81977 -0.81977 z"
     id="path3948" />
  <path
     style="fill:#121119;fill-opacity:1;stroke-width:0.109302"
     d="M 119.46757,8.2011044 V 3.559172 l 0.90174,0.064717 c 0.49596,0.035594 0.95535,0.1201305 1.02087,0.1878579 0.0655,0.067727 1.27057,1.4944792 2.6779,3.1705598 1.40734,1.6760806 2.6677,3.1762573 2.8008,3.3337243 l 0.242,0.286306 0.004,-3.5250043 0.004,-3.5250037 h 0.81977 0.81976 v 4.6453537 4.6453543 l -0.90174,-0.0073 -0.90175,-0.0073 -1.66928,-2.009395 c -2.5809,-3.1067514 -4.0958,-4.8620383 -4.19618,-4.8620383 -0.0503,0 -0.0915,1.5493621 -0.0915,3.4430269 v 3.4430274 h -0.76512 -0.76511 z"
     id="path3950" />
  <path
     style="fill:#121119;fill-opacity:1;stroke-width:0.109302"
     d="M 105.58616,8.197683 V 3.5523293 h 4.26279 4.2628 v 0.8197683 0.8197683 h -3.44303 -3.44303 v 1.0930244 1.0930244 h 2.78722 2.78721 V 8.197683 9.0174513 h -2.78721 -2.78722 V 10.110476 11.2035 h 3.49768 3.49768 v 0.819768 0.819769 h -4.31745 -4.31744 z"
     id="path3952" />
  <path
     style="fill:#121119;fill-opacity:1;stroke-width:0.109302"
     d="m 93.398935,12.734848 c -1.36711,-0.0465 -1.690219,-0.09012 -1.944557,-0.262523 C 90.893639,12.092227 90.887294,12.047602 90.8509,8.2280158 L 90.816822,4.651368 91.252807,4.1838255 91.688792,3.716283 95.144355,3.6845255 c 3.398636,-0.031234 3.46269,-0.027752 3.888204,0.2114008 0.496307,0.2789398 0.811451,0.8503417 0.910668,1.6511725 l 0.06432,0.5191866 H 99.189874 98.372196 V 5.6290757 5.1918659 H 95.311728 92.25126 V 8.197683 11.2035 h 3.060468 3.060468 V 10.219778 9.2360562 H 97.279172 96.186147 V 8.4709391 7.705822 h 1.917203 1.9172 l -0.06407,1.7215135 c -0.03524,0.9468325 -0.08682,1.8649645 -0.114618,2.0402925 -0.07258,0.457758 -0.534656,1.011987 -0.949271,1.138595 -0.44358,0.135453 -3.31578,0.202701 -5.493655,0.128625 z"
     id="path3954" />
  <path
     style="fill:#121119;fill-opacity:1;stroke-width:0.109302"
     d="m 75.557914,12.535939 c -0.182437,-0.115901 -0.08015,-0.46315 0.95589,-3.2452316 1.130392,-3.0354312 1.926551,-4.9042692 2.191432,-5.1439832 0.455716,-0.4124172 2.190291,-0.5967377 3.440594,-0.3656066 1.086902,0.2009249 1.168559,0.2781089 1.749303,1.6534908 0.716981,1.6980321 1.925375,4.8602226 2.300705,6.0206086 0.339589,1.049894 0.311025,1.163954 -0.292393,1.167541 -0.499376,0.003 -0.752381,-0.399752 -1.459141,-2.322591 L 84.252888,9.7793917 80.97211,9.8083056 77.691331,9.8372196 77.28349,10.926665 c -0.463665,1.23856 -0.810401,1.698594 -1.27838,1.696093 -0.172243,-9.2e-4 -0.373482,-0.03999 -0.447196,-0.08682 z M 83.61569,8.1703574 C 83.6145,7.8338216 82.778444,5.5226634 82.577618,5.3007529 82.301745,4.9959171 81.85623,4.9439022 80.61055,5.0710931 c -1.308391,0.133594 -1.319373,0.1432048 -1.795031,1.5709616 -0.405375,1.216796 -0.419877,1.4744546 -0.09044,1.6068735 0.135261,0.054369 1.291135,0.1019696 2.568607,0.1057802 2.142092,0.00639 2.322624,-0.00794 2.322,-0.184351 z"
     id="path3956" />
  <path
     style="fill:#121119;fill-opacity:1;stroke-width:0.109302"
     d="m 62.194638,12.710217 c -0.443147,-0.475662 -1.095485,-2.122931 -2.670496,-6.7434767 -0.776001,-2.276519 -0.776026,-2.2404464 0.0015,-2.1757638 0.538391,0.044788 0.606626,0.1650235 1.618328,2.85163 0.878593,2.3331341 1.12581,2.8343595 1.374366,2.786492 0.182907,-0.035225 0.661793,-1.1043158 1.530808,-3.4174643 0.713972,-1.9004541 0.946846,-2.2407 1.533602,-2.2407 0.577977,0 0.784145,0.2472832 1.269444,1.5226017 1.109089,2.9145742 1.673986,4.1611252 1.885689,4.1611252 0.125159,0 0.866776,-1.6343887 1.487906,-3.2790732 0.858972,-2.2744635 0.951669,-2.4046537 1.712138,-2.4046537 0.291264,0 0.529572,0.019617 0.529572,0.043593 0,0.092699 -1.999157,5.5248606 -2.519677,6.8465318 -1.019029,2.587454 -1.488564,2.59998 -2.46671,0.06581 -1.525649,-3.952639 -1.813634,-4.6605785 -1.895892,-4.6605785 -0.106672,0 -0.62412,1.2723208 -1.543913,3.796231 -1.018467,2.7946705 -1.378645,3.3500855 -1.846688,2.8477005 z"
     id="path3958" />
  <path
     style="fill:#000000;fill-opacity:1;stroke-width:0.109302"
     d="m 46.617491,36.381568 c -0.240466,-0.02377 -1.249726,-0.139424 -2.242802,-0.257022 -0.993076,-0.117597 -4.042614,-0.436683 -6.776751,-0.709081 -5.758004,-0.573661 -8.426063,-0.899034 -8.572675,-1.04545 -0.06558,-0.0655 -0.06558,-0.104006 0,-0.10453 0.05711,-4.37e-4 0.521919,-0.05219 1.032908,-0.114961 0.510989,-0.06277 3.535934,-0.15313 6.7221,-0.200794 5.162976,-0.07724 5.843597,-0.10765 6.257971,-0.279628 0.433789,-0.180036 1.010641,-0.716504 1.010641,-0.939888 0,-0.292764 -0.581728,-0.446391 -2.039016,-0.538476 -0.832323,-0.05259 -1.660871,-0.156555 -1.84122,-0.231025 l -0.327908,-0.135399 0.580988,-0.08006 c 0.657438,-0.0906 0.729602,-0.132739 0.637643,-0.372379 -0.151874,-0.395778 -0.561545,-0.428864 -5.809333,-0.469168 -6.271144,-0.04816 -9.269983,0.06486 -9.790738,0.368995 -0.967554,0.565082 -0.460013,0.688074 3.333876,0.807901 3.065346,0.09682 4.117268,0.201984 3.614999,0.361415 -0.336716,0.106882 -2.380689,0.271916 -4.973261,0.401552 -5.797647,0.289898 -9.158796,0.7071 -17.324437,2.150392 C 8.2629302,35.320518 6.1400863,35.387859 5.629968,35.136089 5.406118,35.025607 5.2852904,34.871574 5.2469654,34.647829 5.1964515,34.352923 5.1375891,34.311635 4.6449095,34.225524 4.3445721,34.173031 3.9026077,34.081886 3.6627662,34.022979 L 3.2266909,33.915877 3.5261381,33.677106 c 0.1646961,-0.131324 0.2994473,-0.294893 0.2994473,-0.363486 0,-0.243309 0.3240401,-0.442805 0.8416785,-0.518183 0.5387748,-0.07845 1.016463,-0.311817 1.016463,-0.496566 0,-0.22395 -0.5615702,-0.45041 -1.6143886,-0.651023 C 3.4644762,31.532593 2.7664831,31.334676 2.5182425,31.208033 1.6510093,30.765604 0.87441952,29.898047 0.87441952,29.371658 c 0,-0.11303 -0.12062275,-0.443769 -0.26805057,-0.734977 C 0.35675556,28.143632 0.35111699,28.097486 0.52439212,27.965788 0.62673268,27.888004 0.8826172,27.792698 1.0930244,27.753997 1.9322256,27.599641 2.2224746,27.08878 1.743248,26.609553 1.6036195,26.469925 1.5434818,26.308385 1.5838177,26.181299 c 0.04286,-0.13504 -0.047004,-0.331358 -0.2656862,-0.580423 -0.30994,-0.353002 -0.31870163,-0.38661 -0.1411515,-0.541422 0.5095617,-0.444306 1.4544921,-0.652092 4.8750318,-1.071996 1.4506427,-0.17808 2.8219801,-0.352631 3.0474164,-0.38789 l 0.4098841,-0.06411 v 1.266585 1.266586 h 5.9023317 5.902332 v -1.366281 -1.36628 h 4.809307 4.809308 v 1.36628 1.366281 h 5.902331 5.902332 V 24.806701 23.54477 l 0.355233,0.05993 c 0.195378,0.03296 1.142211,0.15788 2.104072,0.277597 4.210551,0.524062 7.238372,1.258301 7.448651,1.806279 0.03272,0.08526 -0.04359,0.286069 -0.169577,0.446235 -0.192933,0.245274 -0.229067,0.442149 -0.229067,1.248083 0,1.166438 -0.114704,1.346735 -1.028765,1.617059 -0.355414,0.105109 -0.697649,0.27266 -0.760522,0.372335 -0.171246,0.271482 0.177773,0.592092 0.860672,0.790616 0.31608,0.09189 0.688666,0.259359 0.827969,0.372159 0.280281,0.226958 0.289569,0.219394 -0.480453,0.391275 -0.457995,0.102231 -0.341321,0.41235 0.19723,0.524245 0.239109,0.04968 0.478047,0.133628 0.530971,0.186552 0.116591,0.116591 -0.394272,1.272172 -0.711849,1.610218 -0.123314,0.131262 -0.427885,0.272023 -0.676824,0.312803 -0.248939,0.04078 -0.543272,0.154337 -0.654073,0.252349 -0.124222,0.109885 -0.396598,0.178655 -0.710466,0.17938 -0.43784,10e-4 -0.513711,0.03418 -0.542639,0.237202 -0.02381,0.167102 0.06401,0.293703 0.300722,0.433533 0.391008,0.230974 0.489623,0.47057 0.396966,0.964473 -0.120871,0.644298 -0.380106,0.768884 -1.631636,0.784152 -0.610043,0.0074 -1.305913,-0.0059 -1.546378,-0.02968 z"
     id="path3960" />
  <path
     style="fill:#000000;fill-opacity:1;stroke-width:0.109302"
     d="M 62.251951,12.66768 C 62.01154,12.427269 61.730845,11.857483 61.226969,10.587057 60.641829,9.1117405 59.023318,4.3466467 59.023318,4.0992396 c 0,-0.3987128 0.767664,-0.3435604 1.041817,0.074849 0.09748,0.1487656 0.521611,1.1641192 0.942525,2.2563412 0.908524,2.3575141 1.195099,2.9578875 1.433835,3.0038847 0.233166,0.044924 0.56461,-0.6160414 1.46443,-2.9203711 0.38958,-0.997666 0.809212,-1.9773781 0.932515,-2.1771378 0.41697,-0.6755186 1.092979,-0.6757633 1.503604,-5.444e-4 0.117792,0.1936941 0.517084,1.1171594 0.887315,2.0521453 0.841259,2.1245239 1.29654,3.0662548 1.482384,3.0662548 0.198558,0 0.480045,-0.583258 1.474197,-3.0546307 0.470274,-1.169058 0.948438,-2.2189541 1.062586,-2.3331024 0.197167,-0.1971672 0.914409,-0.3091038 1.058342,-0.1651704 0.06617,0.066167 -1.024479,3.136643 -2.128407,5.9920661 -0.775771,2.0066121 -1.12327,2.6213051 -1.481877,2.6213051 -0.380303,0 -0.684886,-0.579928 -1.827388,-3.479356 C 66.332235,7.6730783 65.848639,6.4474777 65.79454,6.3122159 65.569746,5.7501756 65.432921,5.9991202 64.307691,9.0174513 c -0.876605,2.3514177 -1.102484,2.8922977 -1.42644,3.4157017 -0.28223,0.455986 -0.373737,0.490089 -0.6293,0.234527 z"
     id="path5024" />
  <path
     style="fill:#000000;fill-opacity:1;stroke-width:0.109302"
     d="m 75.762084,12.538929 c -0.218049,-0.03562 -0.248338,-0.08923 -0.196593,-0.34795 0.160306,-0.801533 2.388357,-6.5806133 2.887538,-7.4896473 0.395272,-0.7198117 0.69639,-0.8497735 2.104911,-0.9084769 1.56131,-0.065071 2.302999,0.095144 2.706482,0.5846389 0.457309,0.5547954 3.084506,7.2992403 3.084506,7.9184323 0,0.248166 -0.346066,0.339453 -0.671599,0.177157 -0.318347,-0.158713 -0.658254,-0.758382 -1.044894,-1.843421 L 84.330583,9.7825684 H 80.98925 77.647917 l -0.199955,0.5738376 c -0.590519,1.694688 -1.047848,2.286744 -1.685878,2.182523 z m 7.854283,-4.4314039 c 0,-0.2814471 -0.384196,-1.4625307 -0.757156,-2.3276274 -0.149271,-0.3462391 -0.344629,-0.6067356 -0.512319,-0.6831402 -0.560996,-0.2556066 -2.628765,-0.070856 -3.0036,0.2683646 -0.226942,0.2053805 -0.86414,2.0283003 -0.86414,2.4721671 0,0.165528 0.08391,0.3437512 0.191279,0.40629 0.113488,0.066101 1.158114,0.1127618 2.568608,0.1147337 l 2.377328,0.00332 z"
     id="path5026" />
  <path
     style="fill:#000000;fill-opacity:1;stroke-width:0.109302"
     d="m 92.439383,12.637726 c -0.718634,-0.06696 -0.895709,-0.124685 -1.143928,-0.372903 l -0.293679,-0.29368 -0.08537,-3.6317942 -0.08537,-3.6317945 0.459611,-0.4683101 0.459612,-0.46831 h 3.54243 3.542431 l 0.412349,0.4123485 c 0.409084,0.409084 0.653165,0.9993507 0.654348,1.582421 6.07e-4,0.2993385 -0.0026,0.3005817 -0.764508,0.3005817 H 98.372196 V 5.6290757 5.1918659 H 95.311728 92.25126 V 8.197683 11.2035 h 3.060468 3.060468 V 10.219778 9.2360562 H 97.279172 96.186147 V 8.4709391 7.705822 h 1.897562 1.897562 l -0.04228,1.0656988 c -0.08815,2.2215702 -0.159007,2.8329732 -0.368208,3.1769782 -0.392178,0.644884 -0.61669,0.690649 -3.588417,0.731466 -1.481001,0.02034 -3.075341,0.0013 -3.542979,-0.04224 z"
     id="path5028" />
  <path
     style="fill:#000000;fill-opacity:1;stroke-width:0.109302"
     d="M 105.58616,8.197683 V 3.5523293 h 4.26279 4.2628 v 0.8197683 0.8197683 h -3.44303 -3.44303 v 1.0930244 1.0930244 h 2.78722 2.78721 V 8.197683 9.0174513 h -2.78721 -2.78722 V 10.110476 11.2035 h 3.49768 3.49768 v 0.819768 0.819769 h -4.31745 -4.31744 z"
     id="path5030" />
  <path
     style="fill:#000000;fill-opacity:1;stroke-width:0.109302"
     d="M 119.46757,8.2523342 V 3.6616317 l 0.51918,0.0012 c 1.29223,0.00299 1.04819,-0.2029786 4.20527,3.5493247 l 2.87207,3.4135566 0.0288,-3.5366933 0.0288,-3.5366934 h 0.81827 0.81827 v 4.6590165 4.6590162 l -0.34157,-0.06831 c -0.18786,-0.03757 -0.59372,-0.06831 -0.90191,-0.06831 h -0.56035 l -2.02145,-2.422087 c -2.48588,-2.9785718 -3.69684,-4.354664 -3.83209,-4.354664 -0.0624,0 -0.1031,1.3585758 -0.1031,3.4430269 v 3.4430271 h -0.76512 -0.76511 z"
     id="path5032" />
  <path
     style="fill:#000000;fill-opacity:1;stroke-width:0.109302"
     d="M 133.89549,8.197683 V 3.5523293 h 0.81977 0.81977 v 4.6453537 4.645354 h -0.81977 -0.81977 z"
     id="path5034" />
  <path
     style="fill:#000000;fill-opacity:1;stroke-width:0.109302"
     d="M 140.89085,8.197683 V 3.5523293 l 0.40988,0.00958 c 1.29729,0.030307 1.35103,0.059585 2.38969,1.3020538 2.19741,2.6285942 4.76561,5.5744239 4.85983,5.5744239 0.0598,0 0.10107,-1.4075361 0.10107,-3.4430263 V 3.5523293 h 0.81977 0.81977 v 4.635018 4.6350177 l -0.90175,-0.059 c -0.49596,-0.03245 -0.90618,-0.06469 -0.91161,-0.07164 -0.005,-0.0069 -0.98496,-1.16851 -2.17673,-2.581244 -2.68238,-3.1797042 -3.54303,-4.153493 -3.67091,-4.153493 -0.0577,0 -0.0995,1.4472704 -0.0995,3.4430269 v 3.4430271 h -0.81977 -0.81976 z"
     id="path5036" />
  <path
     style="fill:#000000;fill-opacity:1;stroke-width:0.109302"
     d="m 156.80459,12.628358 c -0.17471,-0.0569 -0.48213,-0.262865 -0.68314,-0.457693 l -0.36547,-0.354233 V 8.1984242 4.5804166 l 0.4189,-0.409051 0.41891,-0.409051 3.61662,0.031635 3.61662,0.031635 0.27917,0.2623993 c 0.30145,0.2833389 0.56382,0.9139456 0.65256,1.5684166 l 0.0556,0.4098841 h -0.8129 -0.8129 V 5.6290757 5.1918659 h -3.00581 -3.00582 V 8.197683 11.2035 h 3.00582 3.00581 V 10.219778 9.2360562 h -1.03837 -1.03837 V 8.4709391 7.705822 h 1.81916 1.81916 l -0.0567,1.9777876 c -0.0866,3.0218224 0.0334,2.9404254 -4.42904,3.0036734 -1.81457,0.02572 -3.27634,8.2e-4 -3.45979,-0.05893 z"
     id="path5038" />
  <path
     style="fill:#000000;fill-opacity:1;stroke-width:0.109302"
     d="M 170.1839,8.197683 V 3.5523293 h 4.31745 4.31744 v 0.8197683 0.8197683 h -3.49768 -3.49767 v 1.0930244 1.0930244 h 2.78721 2.78721 V 8.197683 9.0174513 h -2.78721 -2.78721 V 10.110476 11.2035 h 3.49767 3.49768 v 0.819768 0.819769 h -4.31744 -4.31745 z"
     id="path5040" />
  <path
     style="fill:#000000;fill-opacity:1;stroke-width:0.109302"
     d="M 183.95601,8.1828262 V 3.5226157 l 0.50711,0.069508 c 0.27892,0.038229 0.68782,0.069508 0.90868,0.069508 0.3933,0 0.46093,0.071179 3.29114,3.463839 l 2.88959,3.4638383 0.0288,-3.5184895 0.0288,-3.5184902 h 0.81825 0.81825 v 4.6453537 4.645354 h -0.86471 -0.86472 l -1.40072,-1.666862 c -2.79332,-3.324061 -4.43965,-5.219192 -4.53399,-5.219192 -0.0535,0 -0.0963,1.5298053 -0.0963,3.4430269 v 3.4430271 h -0.76512 -0.76511 z"
     id="path5042" />
</svg>
